<svg xmlns="http://www.w3.org/2000/svg" xmlns:xlink="http://www.w3.org/1999/xlink" width="300" height="300" viewBox="1032410.3113039999 4690803.076304 1114856.0001920005 1558804.0894919997" preserveAspectRatio="xMinYMin meet"><g transform="matrix(1,0,0,-1,0,10940410.2421)"><g><polyline fill="none" stroke="#66cc99" stroke-width="10392.027263279999" points="1229997.9013,4793432.2369 1221603.1693,4794301.7685 1217789.5399,4790489.8277 1231115.2067,4787137.924 1236183.9211,4784331.4255 1232509.9445,4771870.0237 1217364.4933,4768106.6692 1208068.3451,4760567.7875 1199129.799,4763418.3939 1193856.5725,4757495.7427 1195015.1263,4751611.464 1181598.8221,4748536.5611 1181059.8351,4755904.7585 1188964.0741,4762073.5129 1188575.8813,4771077.7939 1193562.9385,4776877.3095 1196403.1733,4784814.7499 1201122.0591,4788480.7601 1200361.0396,4796922.2422 1195572.0567,4808489.5651 1198985.5975,4815387.3633 1207704.4806,4817129.7889 1216154.6733,4813266.2203 1218477.7781,4806498.4488 1229729.7347,4798718.6067 1229997.9013,4793432.2369" opacity="0.8" /><polyline fill="none" stroke="#66cc99" stroke-width="10392.027263279999" points="1101068.2698,4916950.6843 1096277.6826,4926221.3416 1107046.8733,4930884.1834 1110194.3531,4928426.7394 1111404.5691,4920177.9986 1108800.6957,4914502.166 1101068.2698,4916950.6843" opacity="0.8" /><polyline fill="none" stroke="#66cc99" stroke-width="10392.027263279999" points="1282294.7146,4824390.3885 1277759.2139,4832783.5132 1262946.0033,4835230.6146 1256389.5979,4832365.038 1243681.5529,4835866.4271 1237141.582,4833285.4896 1236558.0519,4840008.8904 1230182.8929,4851883.4763 1220231.2165,4856406.5645 1216765.0225,4851222.4604 1210125.3337,4853669.2927 1198979.0045,4849486.1356 1191716.8951,4858055.0056 1192495.2879,4863716.2425 1184219.7,4870553.723 1177965.5599,4873363.2068 1167835.5237,4873809.1894 1165212.1789,4864147.0607 1154381.0869,4860510.5818 1145713.5752,4860858.2031 1125813.108,4864390.5177 1120239.3835,4862435.3249 1110718.117,4863890.3235 1107254.9259,4869592.5054 1111899.6661,4873686.381 1112612.1126,4880145.3077 1106178.7931,4879426.1598 1105329.9549,4886103.7369 1100817.3686,4888542.4421 1092782.0048,4885619.3189 1090143.7961,4895517.1142 1091224.1729,4905166.9686 1096289.2646,4908329.7856 1104323.0942,4909351.8348 1118185.9831,4913936.1324 1112208.2476,4917011.0798 1113322.6202,4923854.0253 1111068.33,4931826.5457 1106259.7239,4933659.1411 1106695.7796,4940592.6288 1117187.9995,4967939.0317 1122518.3553,4964819.669 1130304.0781,4964653.4599 1126180.7244,4977802.2913 1128324.2433,4985574.8901 1147472.9159,5015450.0653 1164664.7395,5030305.8076 1169830.2383,5037592.6398 1183312.6458,5050215.7425 1188670.5136,5048500.0511 1188873.4521,5058725.2302 1191921.2833,5067090.9809 1199602.6833,5072881.4636 1201994.7462,5079893.6338 1209103.1082,5080088.6002 1205019.3026,5087481.4721 1219790.3629,5099568.7567 1225686.3164,5112009.2643 1230091.2447,5117377.5303 1240222.8329,5118119.0558 1246740.2949,5121740.7105 1255970.4568,5119810.6792 1264313.4769,5123229.0797 1269825.106,5130414.3697 1276175.2864,5133724.4308 1294651.3739,5152317.0627 1311717.211,5163535.0892 1324898.466,5167015.6433 1332652.0487,5173551.26 1340437.7427,5187378.9494 1355371.2819,5195022.1137 1360757.8519,5202545.5435 1377783.5411,5216393.2521 1376873.2819,5222339.1216 1383657.3999,5225018.7575 1389870.9418,5231940.3485 1398269.4809,5234279.4107 1414025.4606,5244427.3725 1425709.9664,5256657.2528 1431990.9962,5267873.6718 1440241.8865,5276133.1476 1449434.433,5292212.4767 1453314.6364,5306380.4808 1460174.8306,5319162.9448 1461293.081,5331844.6604 1468806.4507,5358144.8851 1471891.244,5362118.2634 1472153.6947,5376862.6269 1482543.5347,5379244.6274 1489466.7424,5378249.262 1502438.3384,5388747.9399 1506839.941,5393955.2802 1515435.5976,5411266.6045 1521687.6081,5418182.8899 1524012.7583,5429453.985 1525315.3201,5458001.2109 1523749.4262,5470145.2583 1527002.4853,5477464.2657 1533992.2192,5485976.072 1540246.6533,5489048.6418 1553256.4449,5502220.4572 1566615.0967,5509516.0933 1569719.3715,5515782.6873 1577031.7964,5513481.8121 1573596.7427,5507509.9763 1574033.0339,5491404.3052 1582965.2161,5481617.6963 1590416.6763,5479843.9025 1599184.073,5485532.387 1605349.5481,5471703.6141 1601040.1525,5462115.4522 1602815.3164,5451389.2354 1600799.8036,5445281.9617 1605517.2208,5440834.0851 1608729.4483,5429026.4008 1616642.8771,5424520.8823 1618568.9015,5428691.2922 1626024.283,5433359.2765 1627132.7408,5438574.431 1634636.6409,5444570.1193 1638725.8704,5442617.6749 1649908.6947,5455398.2413 1656596.6623,5457220.5745 1667509.7311,5464013.7561 1671527.4288,5458416.591 1672851.8384,5444871.268 1678688.0856,5451555.2351 1683391.8039,5449432.7069 1690724.3317,5458875.452 1698889.1335,5460681.915 1702447.8994,5452606.8218 1694233.9949,5434406.3902 1694880.956,5428948.8081 1687650.7256,5417072.2334 1686293.715,5407846.2036 1689443.5952,5402521.0798 1695930.2161,5398498.5114 1696344.2376,5388694.927 1699670.0048,5380258.1912 1706020.4058,5377984.5774 1699368.1852,5367783.9358 1686901.9139,5353232.6602 1679995.829,5344808.8355 1673699.3316,5328828.9497 1657487.738,5311009.3367 1655263.2432,5304153.9944 1648900.8236,5302481.0781 1641829.8939,5293955.8316 1639332.1376,5284300.4001 1630127.5869,5261459.7075 1619711.6918,5244391.0788 1611819.9698,5240681.8348 1606559.479,5233548.4497 1585108.6728,5224370.6395 1578383.9069,5210828.8314 1576033.9248,5195792.9217 1576986.5635,5178297.8227 1581916.1911,5174447.5357 1603229.7935,5166421.3836 1608230.2131,5161921.9696 1610476.1291,5154466.3275 1608081.0017,5146802.0917 1599817.5912,5140636.1345 1586877.4836,5140358.153 1578171.4634,5147231.0437 1566843.9569,5146563.1136 1545088.2951,5142662.2435 1522019.8635,5132297.7227 1489191.0734,5112552.3222 1475323.7179,5102140.3525 1467048.4724,5093989.605 1460188.9066,5084231.2168 1461405.1636,5077146.2952 1456634.6289,5068036.0861 1453979.0702,5056742.9549 1455295.9614,5029172.4397 1453579.2628,5021995.1439 1450300.3548,5014960.361 1440576.2929,5004039.6233 1435341.1682,4995537.8124 1429998.1607,4980817.356 1430475.5446,4962158.2709 1424772.4099,4955333.3767 1422583.5671,4948326.9802 1417067.9152,4944264.5265 1413267.4404,4935287.8651 1417914.7672,4930079.2407 1418788.7694,4914019.3188 1407017.0618,4913033.5162 1390602.0252,4906579.4601 1383196.0876,4895184.2654 1381369.7725,4884883.9719 1363102.1846,4868202.8834 1353663.5084,4861558.587 1354019.0062,4850816.2544 1338483.1555,4837432.841 1329995.7273,4837553.2567 1324715.4647,4831634.7032 1315145.9743,4830066.8586 1310825.215,4826096.002 1302545.8256,4826990.4113 1294518.7261,4823272.5043 1282294.7146,4824390.3885" opacity="0.8" /><polyline fill="none" stroke="#66cc99" stroke-width="10392.027263279999" points="1125376.3259,4982869.816 1124814.3323,4976641.044 1128289.7921,4970717.0423 1125420.1958,4966522.1375 1118817.3258,4972012.5867 1125376.3259,4982869.816" opacity="0.8" /><polyline fill="none" stroke="#66cc99" stroke-width="10392.027263279999" points="1701512.1629,5996204.8743 1694071.9249,5996670.1668 1698472.8948,5988332.4659 1703768.5647,5984808.5328 1706030.7416,5975135.9042 1701819.5613,5971967.4757 1693314.4403,5971970.8739 1688395.3701,5989681.2008 1677965.6958,6005588.9233 1662101.242,6027765.2897 1633099.9635,6066188.0936 1632333.2593,6068917.4647 1604938.2778,6105747.6678 1611887.8264,6107105.9235 1615313.2862,6111814.5646 1615273.0793,6122910.9659 1607401.5736,6138887.1603 1586362.9653,6168009.0013 1568216.7085,6184787.0696 1572430.2944,6190525.1309 1580992.292,6187484.7528 1587964.7471,6191873.681 1601327.0514,6190814.8423 1598604.2695,6179319.1659 1602302.8684,6165378.966 1610993.2613,6147279.1175 1618217.2473,6141247.7304 1625654.4806,6138839.3171 1619611.4661,6131232.4434 1626312.6186,6125451.5999 1631049.39,6131536.119 1626224.9002,6142056.7211 1639245.1299,6146263.0728 1635581.8515,6132044.6677 1639612.9348,6128430.5315 1648872.4808,6126997.4738 1651390.585,6135510.2472 1658793.6184,6130516.4984 1664017.9086,6132002.6554 1667504.0425,6122580.5619 1676773.8092,6127264.7553 1684932.9873,6121315.2794 1687775.4183,6113350.8992 1698281.2535,6113546.125 1698221.3987,6096136.1567 1702333.8303,6093768.139 1717303.0017,6095680.8189 1722717.7282,6089921.1923 1721686.2959,6084337.3811 1733193.0766,6071540.9794 1733658.2241,6064257.0177 1739226.7945,6060695.3658 1736021.5816,6054847.8425 1740875.9821,6045543.1983 1740416.647,6030364.0474 1734255.2674,6038727.4396 1728574.9872,6038982.8492 1726887.6147,6033883.3977 1735540.1812,6032640.157 1731745.7286,6024545.9745 1736045.2861,6011617.8379 1743201.6498,6009537.2847 1745493.1964,6001802.1687 1749043.5044,5995087.6688 1756835.8308,5986141.2589 1763284.6902,5982876.8778 1755560.2512,5969946.0352 1754286.9472,5957789.0975 1751459.2114,5950857.5833 1755590.562,5942763.6403 1758494.6251,5928782.0075 1754720.0237,5921346.8941 1767681.973,5919857.9994 1773869.4544,5914954.9546 1783208.6027,5916177.848 1786416.5249,5909102.4632 1795397.54,5910166.2062 1803207.194,5903965.8422 1803822.1031,5900006.1432 1803887.7127,5889226.7963 1806190.1696,5881452.449 1812852.2095,5877243.7553 1825988.1558,5884637.6569 1823440.3474,5891852.7153 1824116.5784,5898374.9655 1821768.6128,5906413.7642 1814706.9143,5918226.4985 1822141.3287,5923498.7093 1822676.647,5928630.3104 1817027.0893,5935640.378 1818715.6632,5940048.8554 1815250.2313,5948961.3609 1809840.2361,5952152.5699 1808577.1187,5960201.1553 1812187.4843,5961467.8771 1825599.3525,5953111.3075 1825667.43,5947439.4466 1831000.0064,5943372.1285 1830377.2931,5937494.6133 1836323.175,5931105.9702 1849127.4916,5934324.3631 1841556.6716,5920282.3601 1848071.6015,5921217.3961 1854402.2698,5909879.8403 1853093.7251,5907181.7125 1856889.7364,5896878.3162 1855461.6901,5879017.9362 1860345.0048,5859664.7614 1862202.3565,5852925.7995 1859309.5869,5841521.7386 1862559.8838,5831745.4901 1869322.7846,5827573.6404 1881207.5804,5829926.4514 1886618.6134,5824712.3677 1901248.0511,5816583.3003 1906388.0356,5815765.9524 1917024.5486,5806984.2022 1928616.8073,5800960.1024 1945646.1436,5796111.2197 1958730.2882,5788660.7962 1965415.3279,5787137.1386 1985052.8972,5786918.396 1994362.2301,5790273.0768 1999800.0994,5794681.2509 2006740.6805,5805119.9499 2012690.0393,5810453.0855 2016990.3223,5819138.5439 2029580.5631,5821477.1803 2037818.6966,5826395.8626 2042367.6795,5831967.3535 2049387.2903,5832785.4339 2057336.051,5833212.003 2066204.0493,5830508.7146 2073446.3004,5821571.3012 2083882.2803,5819841.5521 2089532.8267,5813824.8039 2076589.1957,5796088.1899 2073760.8014,5784733.895 2068701.4058,5779660.7224 2071347.2107,5770041.8989 2066637.6678,5767226.722 2067632.1969,5759422.6972 2065038.0977,5754018.0293 2066710.7083,5734205.5563 2060884.8627,5728556.8646 2061518.0363,5722418.9016 2052804.4655,5714161.3589 2039244.5953,5704161.5475 2032642.2833,5706842.8953 2026460.6829,5690841.8337 2024489.357,5674919.8545 2024126.2443,5663676.0972 2032576.3647,5659652.5031 2025489.0085,5652779.0511 2023582.1765,5646628.654 2018759.9105,5646089.9975 2018242.3335,5655152.5675 2021363.5548,5662183.4173 2011585.0807,5665934.4835 2001299.7068,5667381.5106 1982594.641,5666960.1607 1968355.0873,5663409.01 1949460.9445,5653896.8134 1944081.4777,5643003.5254 1937809.0295,5638158.8452 1933705.7068,5629143.9242 1937564.0201,5623044.6238 1937041.5161,5614880.6329 1940470.0115,5606505.7173 1949590.7967,5600561.8323 1943712.9014,5593099.5314 1942741.9409,5582770.709 1936008.7528,5572017.2492 1931818.3866,5562162.5745 1929665.4459,5550480.2728 1922956.0826,5542543.5078 1913579.6712,5537260.134 1907314.9851,5518430.6317 1906873.6224,5511357.1853 1895908.792,5507493.3792 1881590.3262,5489434.3907 1875692.5899,5479987.0006 1871587.9288,5466617.8818 1865558.8293,5462204.4429 1861255.063,5454902.2557 1857065.2221,5442177.423 1851941.9865,5437832.4755 1848185.7693,5429838.849 1842875.8941,5427959.3185 1835204.3025,5417504.3427 1823617.8214,5411850.9425 1815817.7786,5403911.0701 1811439.3117,5403021.3929 1802888.9459,5395234.0247 1793774.5693,5391360.3878 1786361.4631,5391644.5909 1783162.9042,5400766.4321 1785215.2847,5410960.4801 1770873.4126,5417785.5362 1760761.9048,5411198.2076 1754562.8585,5419688.2993 1760179.5971,5430649.0821 1754578.9831,5434196.9695 1749598.3203,5430266.3412 1753907.175,5423503.8335 1742628.2566,5420196.5291 1738956.2723,5422126.4906 1735961.8126,5431073.5298 1743445.3375,5435415.8878 1750653.2442,5445848.8982 1756829.4639,5449934.3108 1755164.2194,5454060.1673 1763060.6411,5459399.1045 1767654.2463,5472803.2304 1771576.5557,5475715.5986 1780499.4714,5492312.8245 1785449.5278,5507010.5459 1789000.1997,5525677.5708 1788996.5077,5537345.6787 1787155.8641,5550331.2725 1784312.4522,5558106.6348 1774643.6832,5571853.2197 1764809.9195,5581632.3694 1752608.1792,5586482.7072 1746813.2992,5585571.4505 1733421.7626,5591341.9357 1723753.0741,5598918.7329 1716041.0872,5609206.3301 1703177.7568,5617270.3399 1692482.1885,5618598.4679 1678297.6246,5625696.5623 1668435.914,5636860.1946 1664823.8696,5651847.5204 1668638.1727,5661560.8752 1678631.2413,5669389.883 1694228.2685,5677007.4376 1703999.3421,5683825.9548 1720467.4647,5683539.7182 1735355.7206,5698056.4955 1740438.2163,5714538.1337 1743581.6784,5742265.6714 1742763.7777,5749958.5997 1750010.4278,5758784.3943 1749951.0977,5770541.7375 1748213.2512,5779784.0755 1755743.9643,5777991.8612 1766238.7918,5782949.5976 1764507.644,5787140.4402 1755919.306,5783646.5595 1757331.0545,5791861.4572 1754533.0531,5807840.6511 1762308.6936,5814339.8067 1772247.9922,5815414.512 1771904.4551,5819959.958 1761753.3504,5815488.6276 1756216.3488,5841437.5934 1750437.7537,5857535.6292 1747105.2927,5871395.3306 1736768.9683,5895519.1967 1744704.0897,5899814.8501 1750162.324,5888630.8196 1754524.2901,5889708.8401 1765183.9502,5897845.7736 1762528.3102,5902135.7747 1755221.6925,5905443.9986 1749753.503,5911149.0416 1740914.2529,5903144.0903 1731875.8333,5898774.0656 1730753.8211,5909214.5869 1727032.5428,5923680.7083 1713898.1497,5947486.0901 1704673.1979,5960574.7 1706476.2384,5967202.4575 1710780.3719,5967858.8271 1717511.1415,5955742.4874 1725607.508,5945892.267 1728168.2052,5958418.5318 1726871.0844,5970348.2785 1712787.0833,5973068.2541 1712876.2566,5979163.4373 1723288.6065,5979740.7952 1733165.0316,5989714.0167 1720196.5583,5980077.6907 1709110.421,5986671.9829 1701512.1629,5996204.8743" opacity="0.8" /><polyline fill="none" stroke="#66cc99" stroke-width="10392.027263279999" points="1665079.3317,5476279.6377 1667965.0479,5482828.6371 1679072.1723,5488849.6631 1680804.0605,5494901.2903 1681036.5469,5486944.5483 1676303.2282,5476697.0825 1668529.5209,5468642.7381 1665079.3317,5476279.6377" opacity="0.8" /><polyline fill="none" stroke="#66cc99" stroke-width="10392.027263279999" points="1793981.8643,5931917.8426 1791257.0345,5919906.8808 1784279.8937,5921578.8138 1781830.7229,5925845.6737 1793981.8643,5931917.8426" opacity="0.8" /><polyline fill="none" stroke="#66cc99" stroke-width="10392.027263279999" points="1826629.2121,5974533.3354 1818873.7655,5979183.8569 1818587.8044,5983089.0239 1811226.9977,5988141.8267 1812665.5001,5993246.6009 1809305.3687,5998208.3619 1810895.7047,6005905.3369 1815954.1251,6007877.9063 1818016.2185,5999003.8299 1823326.993,5991879.4741 1822799.7093,5986091.7836 1828379.0056,5980307.1686 1826629.2121,5974533.3354" opacity="0.8" /></g></g></svg>