<svg xmlns="http://www.w3.org/2000/svg" xmlns:xlink="http://www.w3.org/1999/xlink" width="100.0" height="100.0" viewBox="-124.82044336000001 32.12330364 11.093013720000016 10.297066719999997" preserveAspectRatio="xMinYMin meet"><g transform="matrix(1,0,0,-1,0,74.54367400000001)"><g><polyline fill="none" stroke="#66cc99" stroke-width="0.22186027440000033" points="-118.603375,33.478098 -118.368301,33.40711 -118.310213,33.335795 -118.465368,33.326056 -118.48875,33.419826 -118.603375,33.478098" opacity="0.8" /><polyline fill="none" stroke="#66cc99" stroke-width="0.22186027440000033" points="-118.605534,33.030999 -118.369984,32.839273 -118.496298,32.851572 -118.605534,33.030999" opacity="0.8" /><polyline fill="none" stroke="#66cc99" stroke-width="0.22186027440000033" points="-119.919155,34.07728 -119.755521,34.056716 -119.721206,33.959583 -119.873358,33.980375 -119.919155,34.07728" opacity="0.8" /><polyline fill="none" stroke="#66cc99" stroke-width="0.22186027440000033" points="-120.247393,34.001911 -120.073609,34.024477 -119.973691,33.942481 -120.121817,33.895712 -120.247393,34.001911" opacity="0.8" /><polyline fill="none" stroke="#66cc99" stroke-width="0.22186027440000033" points="-124.211605,41.99846 -123.347562,41.999108 -122.378193,42.009518 -121.580865,41.998668 -121.035195,41.993323 -119.999168,41.99454 -119.999866,41.183974 -119.995926,40.499901 -119.997634,39.956505 -120.005746,39.22521 -120.001014,38.999574 -119.587679,38.714734 -118.771867,38.141871 -117.875927,37.497267 -117.375905,37.126843 -116.541983,36.499952 -115.750844,35.889287 -115.271342,35.51266 -114.633487,35.001857 -114.630682,34.866352 -114.47162,34.712966 -114.342615,34.451442 -114.138282,34.30323 -114.254141,34.173831 -114.415908,34.107636 -114.460264,33.996649 -114.533679,33.926072 -114.496489,33.696901 -114.558898,33.531819 -114.62964,33.428138 -114.722872,33.398779 -114.677032,33.27017 -114.707896,33.097432 -114.670803,33.037984 -114.50613,33.01701 -114.468971,32.845155 -114.539093,32.756949 -114.719633,32.718763 -116.04662,32.623353 -117.124862,32.534156 -117.139464,32.627054 -117.246069,32.669352 -117.25167,32.874346 -117.328359,33.121842 -117.50565,33.334063 -117.784888,33.541525 -117.927091,33.605521 -118.088896,33.729817 -118.258687,33.703741 -118.411211,33.741985 -118.392107,33.840915 -118.519514,34.027509 -118.744952,34.032103 -118.805114,34.001239 -119.216441,34.146105 -119.270144,34.252903 -119.461036,34.374064 -119.559459,34.413395 -119.873971,34.408795 -120.008077,34.460447 -120.141165,34.473405 -120.471376,34.447846 -120.511421,34.522953 -120.645739,34.581035 -120.60197,34.692095 -120.637415,34.755895 -120.609898,34.842751 -120.670835,34.904115 -120.629931,35.061515 -120.698906,35.171192 -120.786076,35.177666 -120.89679,35.247877 -120.869209,35.403276 -121.003359,35.46071 -121.166712,35.635399 -121.284973,35.674109 -121.332449,35.783106 -121.462264,35.885618 -121.503112,36.000299 -121.574602,36.025156 -121.717176,36.195146 -121.813734,36.234235 -121.894714,36.317806 -121.9416,36.485602 -121.923866,36.634559 -121.825052,36.657207 -121.788278,36.803994 -121.862266,36.931552 -122.105976,36.955951 -122.20618,37.013949 -122.405073,37.195791 -122.40085,37.359225 -122.452087,37.48054 -122.516689,37.52134 -122.496784,37.686433 -122.514483,37.780829 -122.407452,37.811441 -122.360219,37.592501 -122.140142,37.507907 -122.163049,37.667933 -122.33079,37.78383 -122.309986,37.892755 -122.413725,37.937262 -122.368891,38.007948 -122.262861,38.0446 -122.393588,38.143449 -122.491283,38.108087 -122.476473,37.832513 -122.529185,37.819028 -122.656519,37.904519 -122.70264,37.89382 -122.821383,37.996735 -122.939711,38.031908 -122.968569,38.242879 -123.128825,38.450418 -123.331899,38.565542 -123.441774,38.699744 -123.725367,38.917438 -123.693969,39.057363 -123.803848,39.278771 -123.826306,39.36871 -123.766475,39.552803 -123.851714,39.832041 -124.110549,40.103765 -124.187874,40.130542 -124.363414,40.260974 -124.347853,40.314634 -124.409591,40.438076 -124.329404,40.61643 -124.158322,40.876069 -124.112165,41.028173 -124.153622,41.05355 -124.063076,41.439579 -124.143479,41.709284 -124.255994,41.783014 -124.219592,41.846432 -124.211605,41.99846" opacity="0.8" /></g></g></svg>