<svg xmlns="http://www.w3.org/2000/svg" xmlns:xlink="http://www.w3.org/1999/xlink" width="100.0" height="100.0" viewBox="-0.06918217025390595 -0.9339592984277304 1.1383643405078119 1.8679185968554608" preserveAspectRatio="xMinYMin meet"><g transform="matrix(1,0,0,-1,0,0.0)"><path fill-rule="evenodd" fill="#66cc99" stroke="#555555" stroke-width="0.03735837193710922" opacity="0.6" d="M 0.9951847266721969,-0.0980171403295606 L 0.9807852804032304,-0.19509032201612825 L 0.9569403357322088,-0.29028467725446233 L 0.9238795325112867,-0.3826834323650898 L 0.881921264348355,-0.47139673682599764 L 0.8314696123025452,-0.5555702330196022 L 0.773010453362737,-0.6343932841636455 L 0.7071067811865476,-0.7071067811865475 L 0.6343932841636455,-0.773010453362737 L 0.5555702330196023,-0.8314696123025452 L 0.49999999999999994,-0.8647771281738245 L 0.44442976698039804,-0.8314696123025455 L 0.3656067158363546,-0.7730104533627371 L 0.29289321881345254,-0.7071067811865476 L 0.226989546637263,-0.6343932841636455 L 0.16853038769745465,-0.5555702330196022 L 0.11807873565164506,-0.47139673682599786 L 0.07612046748871326,-0.3826834323650899 L 0.043059664267791176,-0.2902846772544624 L 0.01921471959676957,-0.1950903220161286 L 0.004815273327803182,-0.09801714032956083 L 0.0,-1.2246467991473532e-16 L 0.004815273327803071,0.09801714032956059 L 0.01921471959676957,0.19509032201612836 L 0.043059664267791065,0.2902846772544621 L 0.07612046748871315,0.38268343236508967 L 0.11807873565164495,0.47139673682599764 L 0.16853038769745454,0.555570233019602 L 0.2269895466372629,0.6343932841636453 L 0.2928932188134523,0.7071067811865475 L 0.36560671583635407,0.7730104533627367 L 0.4444297669803978,0.8314696123025452 L 0.49999999999999994,0.8647771281738245 L 0.5555702330196018,0.8314696123025455 L 0.6343932841636456,0.7730104533627369 L 0.7071067811865474,0.7071067811865477 L 0.7730104533627367,0.6343932841636459 L 0.8314696123025452,0.5555702330196022 L 0.8819212643483548,0.4713967368259979 L 0.9238795325112865,0.3826834323650904 L 0.9569403357322088,0.2902846772544625 L 0.9807852804032303,0.19509032201612872 L 0.9951847266721969,0.0980171403295605 L 1.0,0.0 L 0.9951847266721969,-0.0980171403295606 z" /></g></svg>