<svg xmlns="http://www.w3.org/2000/svg" xmlns:xlink="http://www.w3.org/1999/xlink" width="100.0" height="100.0" viewBox="-1.08 -1.08 1.6600000000000001 2.16" preserveAspectRatio="xMinYMin meet"><g transform="matrix(1,0,0,-1,0,0.0)"><path fill-rule="evenodd" fill="#66cc99" stroke="#555555" stroke-width="0.0432" opacity="0.6" d="M 0.4713967368259978,-0.8819212643483549 L 0.38268343236508984,-0.9238795325112867 L 0.29028467725446233,-0.9569403357322089 L 0.19509032201612833,-0.9807852804032304 L 0.09801714032956077,-0.9951847266721968 L 6.123233995736766e-17,-1.0 L -0.09801714032956065,-0.9951847266721969 L -0.1950903220161282,-0.9807852804032304 L -0.29028467725446216,-0.9569403357322089 L -0.3826834323650897,-0.9238795325112867 L -0.4713967368259977,-0.881921264348355 L -0.555570233019602,-0.8314696123025455 L -0.6343932841636454,-0.7730104533627371 L -0.7071067811865475,-0.7071067811865476 L -0.773010453362737,-0.6343932841636455 L -0.8314696123025453,-0.5555702330196022 L -0.8819212643483549,-0.47139673682599786 L -0.9238795325112867,-0.3826834323650899 L -0.9569403357322088,-0.2902846772544624 L -0.9807852804032304,-0.1950903220161286 L -0.9951847266721968,-0.09801714032956083 L -1.0,-1.2246467991473532e-16 L -0.9951847266721969,0.09801714032956059 L -0.9807852804032304,0.19509032201612836 L -0.9569403357322089,0.2902846772544621 L -0.9238795325112868,0.38268343236508967 L -0.881921264348355,0.47139673682599764 L -0.8314696123025455,0.555570233019602 L -0.7730104533627371,0.6343932841636453 L -0.7071067811865477,0.7071067811865475 L -0.6343932841636459,0.7730104533627367 L -0.5555702330196022,0.8314696123025452 L -0.47139673682599786,0.8819212643483549 L -0.38268343236509034,0.9238795325112865 L -0.29028467725446244,0.9569403357322088 L -0.19509032201612866,0.9807852804032303 L -0.09801714032956045,0.9951847266721969 L -1.8369701987210297e-16,1.0 L 0.09801714032956009,0.9951847266721969 L 0.1950903220161283,0.9807852804032304 L 0.29028467725446205,0.9569403357322089 L 0.38268343236509,0.9238795325112866 L 0.4713967368259976,0.881921264348355 L 0.49999999999999994,0.8647771281738245 L 0.4444297669803978,0.8314696123025452 L 0.36560671583635407,0.7730104533627367 L 0.2928932188134523,0.7071067811865475 L 0.2269895466372629,0.6343932841636453 L 0.16853038769745454,0.555570233019602 L 0.11807873565164495,0.47139673682599764 L 0.07612046748871315,0.38268343236508967 L 0.043059664267791065,0.2902846772544621 L 0.01921471959676957,0.19509032201612836 L 0.004815273327803071,0.09801714032956059 L 0.0,-1.2246467991473532e-16 L 0.004815273327803182,-0.09801714032956083 L 0.01921471959676957,-0.1950903220161286 L 0.043059664267791176,-0.2902846772544624 L 0.07612046748871326,-0.3826834323650899 L 0.11807873565164506,-0.47139673682599786 L 0.16853038769745465,-0.5555702330196022 L 0.226989546637263,-0.6343932841636455 L 0.29289321881345254,-0.7071067811865476 L 0.3656067158363546,-0.7730104533627371 L 0.44442976698039804,-0.8314696123025455 L 0.49999999999999994,-0.8647771281738245 L 0.4713967368259978,-0.8819212643483549 z" /></g></svg>