<svg xmlns="http://www.w3.org/2000/svg" xmlns:xlink="http://www.w3.org/1999/xlink" width="100.0" height="100.0" viewBox="-1.12 -1.12 3.24 2.24" preserveAspectRatio="xMinYMin meet"><g transform="matrix(1,0,0,-1,0,0.0)"><path fill-rule="evenodd" fill="#66cc99" stroke="#555555" stroke-width="0.06480000000000001" opacity="0.6" d="M 0.4713967368259978,-0.8819212643483549 L 0.38268343236508984,-0.9238795325112867 L 0.29028467725446233,-0.9569403357322089 L 0.19509032201612833,-0.9807852804032304 L 0.09801714032956077,-0.9951847266721968 L 6.123233995736766e-17,-1.0 L -0.09801714032956065,-0.9951847266721969 L -0.1950903220161282,-0.9807852804032304 L -0.29028467725446216,-0.9569403357322089 L -0.3826834323650897,-0.9238795325112867 L -0.4713967368259977,-0.881921264348355 L -0.555570233019602,-0.8314696123025455 L -0.6343932841636454,-0.7730104533627371 L -0.7071067811865475,-0.7071067811865476 L -0.773010453362737,-0.6343932841636455 L -0.8314696123025453,-0.5555702330196022 L -0.8819212643483549,-0.47139673682599786 L -0.9238795325112867,-0.3826834323650899 L -0.9569403357322088,-0.2902846772544624 L -0.9807852804032304,-0.1950903220161286 L -0.9951847266721968,-0.09801714032956083 L -1.0,-1.2246467991473532e-16 L -0.9951847266721969,0.09801714032956059 L -0.9807852804032304,0.19509032201612836 L -0.9569403357322089,0.2902846772544621 L -0.9238795325112868,0.38268343236508967 L -0.881921264348355,0.47139673682599764 L -0.8314696123025455,0.555570233019602 L -0.7730104533627371,0.6343932841636453 L -0.7071067811865477,0.7071067811865475 L -0.6343932841636459,0.7730104533627367 L -0.5555702330196022,0.8314696123025452 L -0.47139673682599786,0.8819212643483549 L -0.38268343236509034,0.9238795325112865 L -0.29028467725446244,0.9569403357322088 L -0.19509032201612866,0.9807852804032303 L -0.09801714032956045,0.9951847266721969 L -1.8369701987210297e-16,1.0 L 0.09801714032956009,0.9951847266721969 L 0.1950903220161283,0.9807852804032304 L 0.29028467725446205,0.9569403357322089 L 0.38268343236509,0.9238795325112866 L 0.4713967368259976,0.881921264348355 L 0.49999999999999994,0.8647771281738245 L 0.5286032631740021,0.8819212643483549 L 0.6173165676349097,0.9238795325112865 L 0.7097153227455375,0.9569403357322088 L 0.8049096779838714,0.9807852804032303 L 0.9019828596704396,0.9951847266721969 L 0.9999999999999998,1.0 L 1.09801714032956,0.9951847266721969 L 1.1950903220161284,0.9807852804032304 L 1.290284677254462,0.9569403357322089 L 1.38268343236509,0.9238795325112866 L 1.4713967368259975,0.881921264348355 L 1.5555702330196017,0.8314696123025455 L 1.6343932841636457,0.7730104533627369 L 1.7071067811865475,0.7071067811865477 L 1.7730104533627367,0.6343932841636459 L 1.8314696123025453,0.5555702330196022 L 1.881921264348355,0.4713967368259979 L 1.9238795325112865,0.3826834323650904 L 1.9569403357322088,0.2902846772544625 L 1.9807852804032304,0.19509032201612872 L 1.995184726672197,0.0980171403295605 L 2.0,0.0 L 1.995184726672197,-0.0980171403295606 L 1.9807852804032304,-0.19509032201612825 L 1.9569403357322088,-0.29028467725446233 L 1.9238795325112867,-0.3826834323650898 L 1.881921264348355,-0.47139673682599764 L 1.8314696123025453,-0.5555702330196022 L 1.7730104533627369,-0.6343932841636455 L 1.7071067811865475,-0.7071067811865475 L 1.6343932841636455,-0.773010453362737 L 1.5555702330196022,-0.8314696123025452 L 1.471396736825998,-0.8819212643483549 L 1.3826834323650898,-0.9238795325112867 L 1.2902846772544623,-0.9569403357322089 L 1.1950903220161284,-0.9807852804032304 L 1.0980171403295609,-0.9951847266721968 L 1.0,-1.0 L 0.9019828596704393,-0.9951847266721969 L 0.8049096779838718,-0.9807852804032304 L 0.7097153227455378,-0.9569403357322089 L 0.6173165676349103,-0.9238795325112867 L 0.5286032631740023,-0.881921264348355 L 0.49999999999999994,-0.8647771281738245 L 0.4713967368259978,-0.8819212643483549 z" /></g></svg>