<svg xmlns="http://www.w3.org/2000/svg" xmlns:xlink="http://www.w3.org/1999/xlink" width="100.0" height="100.0" viewBox="0.74 0.74 7.02 4.6866666666666665" preserveAspectRatio="xMinYMin meet"><g transform="matrix(1,0,0,-1,0,6.166666666666667)"><g><path fill-rule="evenodd" fill="#66cc99" stroke="#555555" stroke-width="0.1404" opacity="0.6" d="M 1.0,1.0 L 3.0,3.0 L 5.0,1.0 L 1.0,1.0 z" /><path fill-rule="evenodd" fill="#66cc99" stroke="#555555" stroke-width="0.1404" opacity="0.6" d="M 7.5,3.666666666666667 L 7.492777090008295,3.519640956172326 L 7.471177920604846,3.374031183642474 L 7.435410503598313,3.231239650784973 L 7.38581929876693,3.092641518119032 L 7.322881896522532,2.95957156142767 L 7.247204418453817,2.8333113171372633 L 7.159515680044105,2.7150767404211984 L 7.060660171779821,2.6060064948868455 L 6.951589926245468,2.507150986622561 L 6.833355349529404,2.4194622482128487 L 6.707095105238997,2.3437847701441346 L 6.574025148547635,2.280847367899737 L 6.435427015881693,2.2312561630683536 L 6.292635483024192,2.1954887460618213 L 6.147025710494342,2.1738895766583717 L 6.0,2.166666666666667 L 5.852974289505659,2.1738895766583717 L 5.707364516975808,2.1954887460618213 L 5.564572984118307,2.2312561630683536 L 5.425974851452366,2.280847367899737 L 5.292904894761003,2.343784770144134 L 5.166644650470597,2.4194622482128487 L 5.048410073754532,2.5071509866225608 L 4.939339828220179,2.606006494886845 L 4.840484319955895,2.7150767404211984 L 4.752795581546182,2.8333113171372633 L 4.677118103477468,2.95957156142767 L 4.61418070123307,3.0926415181190317 L 4.564589496401687,3.231239650784973 L 4.528822079395154,3.374031183642474 L 4.507222909991705,3.519640956172325 L 4.5,3.6666666666666665 L 4.507222909991705,3.813692377161008 L 4.528822079395154,3.9593021496908594 L 4.564589496401687,4.10209368254836 L 4.61418070123307,4.240691815214301 L 4.677118103477468,4.373761771905663 L 4.752795581546182,4.50002201619607 L 4.840484319955895,4.618256592912134 L 4.939339828220179,4.727326838446488 L 5.048410073754531,4.826182346710771 L 5.166644650470596,4.913871085120484 L 5.292904894761003,4.989548563189199 L 5.425974851452365,5.052485965433597 L 5.564572984118307,5.10207717026498 L 5.707364516975807,5.137844587271513 L 5.852974289505659,5.159443756674962 L 6.0,5.166666666666667 L 6.14702571049434,5.159443756674962 L 6.292635483024192,5.137844587271513 L 6.435427015881693,5.10207717026498 L 6.574025148547635,5.052485965433597 L 6.707095105238997,4.989548563189199 L 6.833355349529403,4.913871085120485 L 6.951589926245468,4.826182346710772 L 7.060660171779821,4.727326838446488 L 7.159515680044105,4.618256592912136 L 7.247204418453817,4.50002201619607 L 7.322881896522532,4.373761771905664 L 7.38581929876693,4.240691815214302 L 7.435410503598313,4.102093682548361 L 7.471177920604846,3.95930214969086 L 7.492777090008295,3.8136923771610074 L 7.5,3.666666666666667 z" /></g></g></svg>