<svg xmlns="http://www.w3.org/2000/svg" xmlns:xlink="http://www.w3.org/1999/xlink" width="100.0" height="100.0" viewBox="-17.399355174213706 20.663820152259692 9.07016264652065 7.328537687203799" preserveAspectRatio="xMinYMin meet"><g transform="matrix(1,0,0,-1,0,48.65617799172318)"><path fill-rule="evenodd" fill="#66cc99" stroke="#555555" stroke-width="0.181403252930413" opacity="0.6" d="M -8.665589565454809,27.656425889592356 L -8.665124477564191,27.589479071558227 L -8.684399786809053,27.395744126896005 L -8.6872936670174,25.881056219988906 L -11.96941891117116,25.933352769468268 L -11.937224493853321,23.374594224536168 L -12.874221564169575,23.284832261645178 L -13.118754441774712,22.771220201096256 L -12.929101935263532,21.327070624267563 L -16.845193650773993,21.33332347257488 L -17.06342322434257,20.999752102130827 L -17.02042843267577,21.422310288981578 L -17.00296179856109,21.420734157796577 L -14.750954555713534,21.500600083903663 L -14.630832688851072,21.860939846274903 L -14.221167771857253,22.31016307218816 L -13.891110398809047,23.691009019459305 L -12.50096269372537,24.7701162785782 L -12.03075883630163,26.030866197203068 L -11.718219773800357,26.104091701760623 L -11.392554897497007,26.883423977154393 L -10.551262579785273,26.990807603456886 L -10.189424200877582,26.860944729107405 L -9.735343390328879,26.860944729107405 L -9.41303748212448,27.088476060488574 L -8.794883999049077,27.120696316022507 L -8.817828334986672,27.656425889592356 L -8.665589565454809,27.656425889592356 z" /></g></svg>