<svg xmlns="http://www.w3.org/2000/svg" xmlns:xlink="http://www.w3.org/1999/xlink" width="100.0" height="100.0" viewBox="-0.268 0.7320215144993081 4.536 4.535924273954375" preserveAspectRatio="xMinYMin meet"><g transform="matrix(1,0,0,-1,0,5.9999673029529905)"><g><path fill-rule="evenodd" fill="#66cc99" stroke="#555555" stroke-width="0.09072" opacity="0.6" d="M 4.031622776601684,4.094868329805052 L 4.040577900409692,4.091397122483923 L 4.049158719370012,4.087082835908694 L 4.057286080985804,4.0819652665785195 L 4.064885015610514,4.076091620755661 L 4.071885427994298,4.069516079018286 L 4.078222743867305,4.062299296479735 L 4.083838505595487,4.054507843284388 L 4.088680911414409,4.046213590541201 L 4.09270529326697,4.037493047359279 L 4.0958745288373,4.028426655100902 L 4.098159383980079,4.019098045362065 L 4.099538782386585,4.0095932685251725 L 4.1,4.0 L 4.1,1.0 L 4.099531096826686,0.9903273186511297 L 4.098128784710465,0.980745348321838 L 4.09580621462336,0.9713439493380052 L 4.092585167775053,0.9622112886159733 L 4.088495851347317,0.9534330128276094 L 4.083576615209144,0.9450914452003814 L 4.077873592269243,0.9372648134849054 L 4.071440265838694,0.9300265163301364 L 4.064336968061063,0.9234444349461798 L 4.056630314113728,0.9175802965099942 L 4.04839257748652,0.9124890952840092 L 4.039701012196345,0.9082185768764417 L 4.030637128294119,0.9048087904799519 L 4.021285927458326,0.9022917132877724 L 4.01173510584389,0.9006909506095607 L 4.002074231662067,0.900021514499308 L 3.992393905204073,0.9002896829713426 L 3.982784909185806,0.901492941124714 L 3.973337357381772,0.9036200047280938 L 3.9641398495323905,0.9066509260440127 L 3.955278640450004,0.9105572809000084 L 1.9552786404500042,1.9105572809000084 L 1.946727066470347,1.9153714318143975 L 1.9386885399625282,1.9210006021030952 L 1.9312404763311237,1.9273905797790036 L 1.9244546045004294,1.934479825863987 L 1.91839627612571,1.9422000670428707 L 1.9131238362210332,1.950476953172789 L 1.9086880612648898,1.9592307733157046 L 1.9051316701949486,1.9683772233983161 L 0.9051316701949486,4.968377223398316 L 0.902531237030295,4.977642892737309 L 0.9008335096534552,4.987115622159039 L 0.9000542115463173,4.996707680092746 L 0.9002005601690224,5.006330229808078 L 0.9012712001155437,5.015894152175407 L 0.9032562156667634,5.025310871041594 L 0.9061372226247865,5.034493173576972 L 0.9098875385779717,5.043356017995931 L 0.9144724300197686,5.051817321170402 L 0.9198494340326752,5.0597987188417735 L 0.9259687515580426,5.0672262913905355 L 0.9327737086094641,5.074031248441957 L 0.9402012811582257,5.080150565967324 L 0.9481826788295971,5.085527569980231 L 0.9566439820040686,5.090112461422028 L 0.9655068264230274,5.093862777375214 L 0.9746891289584054,5.096743784333237 L 0.9841058478245924,5.098728799884456 L 0.9936697701919215,5.099799439830978 L 1.0032923199072525,5.099945788453683 L 1.0128843778409597,5.099166490346545 L 1.0223571072626902,5.097468762969705 L 1.0316227766016839,5.094868329805052 L 4.031622776601684,4.094868329805052 z M 2.0,2.0 L 4.0,1.0 L 4.0,4.0 L 1.0,5.0 L 2.0,2.0 z" /><path fill-rule="evenodd" fill="#66cc99" stroke="#555555" stroke-width="0.09072" opacity="0.6" d="M -0.1,3.0 L -0.09951847266721969,3.0098017140329563 L -0.09807852804032305,3.0195090322016127 L -0.09569403357322089,3.029028467725446 L -0.09238795325112868,3.038268343236509 L -0.0881921264348355,3.0471396736826 L -0.08314696123025454,3.05555702330196 L -0.0773010453362737,3.0634393284163646 L -0.07071067811865475,3.0707106781186546 L -0.06343932841636454,3.0773010453362737 L -0.0555570233019602,3.0831469612302547 L -0.047139673682599775,3.0881921264348353 L -0.038268343236508975,3.0923879532511287 L -0.02902846772544622,3.095694033573221 L -0.01950903220161282,3.098078528040323 L -0.009801714032956065,3.09951847266722 L 0.0,3.1 L 1.0,3.1 L 1.009801714032956,3.09951847266722 L 1.019509032201613,3.098078528040323 L 1.0290284677254462,3.095694033573221 L 1.038268343236509,3.0923879532511287 L 1.0471396736825997,3.0881921264348353 L 1.0555570233019602,3.0831469612302547 L 1.0634393284163646,3.0773010453362737 L 1.0707106781186548,3.0707106781186546 L 1.0773010453362737,3.0634393284163646 L 1.0831469612302544,3.05555702330196 L 1.0881921264348355,3.0471396736826 L 1.0923879532511287,3.038268343236509 L 1.0956940335732208,3.029028467725446 L 1.0980785280403231,3.0195090322016127 L 1.0995184726672198,3.0098017140329563 L 1.1,3.0 L 1.1,2.0 L 1.0995184726672198,1.990198285967044 L 1.0980785280403231,1.980490967798387 L 1.0956940335732208,1.9709715322745538 L 1.0923879532511287,1.961731656763491 L 1.0881921264348355,1.9528603263174003 L 1.0831469612302544,1.9444429766980398 L 1.0773010453362737,1.9365606715836354 L 1.0707106781186548,1.9292893218813452 L 1.0634393284163646,1.9226989546637263 L 1.0555570233019602,1.9168530387697456 L 1.0471396736825997,1.9118078735651645 L 1.038268343236509,1.9076120467488713 L 1.0290284677254462,1.9043059664267792 L 1.019509032201613,1.9019214719596769 L 1.009801714032956,1.9004815273327802 L 1.0,1.9 L 0.0,1.9 L -0.009801714032956021,1.9004815273327802 L -0.019509032201612757,1.9019214719596769 L -0.02902846772544611,1.904305966426779 L -0.03826834323650883,1.9076120467488713 L -0.04713967368259961,1.9118078735651645 L -0.055557023301960023,1.9168530387697453 L -0.06343932841636434,1.922698954663726 L -0.07071067811865453,1.929289321881345 L -0.07730104533627347,1.9365606715836352 L -0.08314696123025432,1.9444429766980396 L -0.08819212643483532,1.9528603263173998 L -0.09238795325112849,1.9617316567634906 L -0.09569403357322073,1.9709715322745534 L -0.09807852804032294,1.9804909677983866 L -0.09951847266721964,1.9901982859670433 L -0.1,2.0 L -0.1,3.0 z M 1.0,2.0 L 1.0,3.0 L 0.0,3.0 L 0.0,2.0 L 1.0,2.0 z" /></g></g></svg>