<svg xmlns="http://www.w3.org/2000/svg" xmlns:xlink="http://www.w3.org/1999/xlink" width="100.0" height="100.0" viewBox="24.213423600000002 21.513353600000002 13.139452799999969 10.5589728" preserveAspectRatio="xMinYMin meet"><g transform="matrix(1,0,0,-1,0,53.58568)"><path fill-rule="evenodd" fill="#66cc99" stroke="#555555" stroke-width="0.26278905599999935" opacity="0.6" d="M 36.86622999999997,22.0 L 32.89999999999998,22.0 L 29.019999999999982,22.0 L 25.0,22.0 L 25.0,25.682499996361 L 25.0,29.23865452953346 L 24.70007,30.044190000000004 L 24.957620000000002,30.6616 L 24.802869999999984,31.089290000000005 L 25.16482,31.56915 L 26.49533,31.58568 L 27.457620000000002,31.32126 L 28.450480000000002,31.025769999999998 L 28.913529999999998,30.87005 L 29.683419999999998,31.186860000000003 L 30.09503,31.4734 L 30.976930000000003,31.55586 L 31.687960000000004,31.4296 L 31.96041,30.933600000000002 L 32.19247,31.26034 L 32.99392,31.024070000000002 L 33.7734,30.967460000000003 L 34.26543474464621,31.21935730952032 L 34.265440000000005,31.219359999999998 L 34.823243288783814,29.76108076171822 L 34.9226,29.50133 L 34.64174,29.099420000000002 L 34.42655,28.343989999999998 L 34.15451,27.8233 L 33.92136,27.6487 L 33.58811,27.97136 L 33.13676,28.417650000000002 L 32.423230000000004,29.851080000000003 L 32.32046,29.76043 L 32.73482,28.70523 L 33.34876,27.69989 L 34.10455,26.14227 L 34.473870000000005,25.598560000000003 L 34.79507,25.03375 L 35.69241,23.92671 L 35.49372,23.752370000000003 L 35.52598,23.10244 L 36.690690000000004,22.20485 L 36.86622999999997,22.0 z" /></g></svg>