<svg xmlns="http://www.w3.org/2000/svg" xmlns:xlink="http://www.w3.org/1999/xlink" width="100.0" height="100.0" viewBox="-144.53176725116384 38.1411178377035 95.41765578142346 48.62610941346035" preserveAspectRatio="xMinYMin meet"><g transform="matrix(1,0,0,-1,0,124.90834508886735)"><g><path fill-rule="evenodd" fill="#66cc99" stroke="#555555" stroke-width="1.9083531156284692" opacity="0.6" d="M -132.71000788443126,54.04000931542356 L -133.1800040417117,54.169975490935315 L -133.2396644827927,53.85108022726235 L -133.05461117875552,53.411468817755406 L -132.54999243231384,53.100014960332146 L -132.18042842677852,52.639707139692405 L -131.57782954982298,52.18237071390928 L -131.1790425218266,52.180432847698285 L -132.049480347351,52.98462148702448 L -131.74998958400334,54.12000438090922 L -132.71000788443126,54.04000931542356 z" /><path fill-rule="evenodd" fill="#66cc99" stroke="#555555" stroke-width="1.9083531156284692" opacity="0.6" d="M -123.5100015875512,48.51001089130341 L -123.92250870832108,49.06248362893581 L -124.92076818911934,49.475274970083376 L -125.41500158755882,49.95000051533259 L -125.75500667382319,50.29501821552935 L -126.69500097721236,50.400903225295394 L -127.30858109602994,50.552573554071955 L -128.35841365625546,50.77064809834371 L -128.44458410710214,50.5391376816761 L -128.0593363043662,49.9949590114266 L -127.02999344954445,49.81499583597008 L -126.85000443587185,49.53000031188043 L -125.95499446679277,49.17999583596759 L -125.6550127773384,48.825004584338494 L -124.01289078839956,48.370846259141395 L -123.5100015875512,48.51001089130341 z" /><path fill-rule="evenodd" fill="#66cc99" stroke="#555555" stroke-width="1.9083531156284692" opacity="0.6" d="M -122.85492448615902,76.11654287383568 L -121.4999950771265,75.90001862253276 L -119.89931758688572,76.053213406062 L -118.04041215703819,76.48117178008714 L -117.10605058476882,76.53003184681911 L -116.33581336145846,76.87696157501063 L -116.19858659550736,77.6452867703262 L -117.57013078496601,77.4983189968881 L -119.1039389718211,77.51221995717462 L -121.15753536032824,76.86450755482828 L -122.85492529360326,76.11654287383568 L -122.85492448615902,76.11654287383568 z" /><path fill-rule="evenodd" fill="#66cc99" stroke="#555555" stroke-width="1.9083531156284692" opacity="0.6" d="M -122.84000000000005,49.000000000000114 L -119.99999999999999,49.000000000000114 L -117.03121,49.00000000000001 L -116.04818000000002,49.00000000000001 L -113.0,49.00000000000001 L -110.05000000000001,49.00000000000001 L -107.05000000000001,49.00000000000001 L -104.04826000000003,48.999860000000076 L -100.65000000000003,49.000000000000114 L -97.22872000000481,49.00070000000001 L -95.15906950917206,49.0 L -95.15609,49.38425000000001 L -94.81758000000002,49.38905 L -94.64,48.84 L -94.32914000000001,48.67074 L -93.63087000000002,48.60926 L -92.61000000000001,48.44999999999993 L -91.64,48.14 L -90.83,48.27 L -89.60000000000002,48.010000000000105 L -89.27291744663665,48.019808254582806 L -88.37811418328671,48.302917588893706 L -87.43979262330028,47.940000000000005 L -86.46199083122826,47.553338019392 L -85.65236324740341,47.22021881773052 L -84.8760798815149,46.90008331968238 L -84.77923824739992,46.63710195574902 L -84.54374874544584,46.538684190449146 L -84.60490000000004,46.439599999999984 L -84.33670000000001,46.408770000000004 L -84.1421195136734,46.51222585711571 L -84.0918512641615,46.27541860613826 L -83.89076534700574,46.11692698829901 L -83.61613094759059,46.11692698829901 L -83.46955074739469,45.994686387712534 L -83.59285071484311,45.81689362241252 L -82.55092464875821,45.34751658790544 L -82.33776312543114,44.440000000000055 L -82.13764238150395,43.57108755143998 L -82.43,42.98 L -82.9,42.43 L -83.12,42.07999999999999 L -83.14199968131264,41.975681057292874 L -83.029810146807,41.83279572200598 L -82.69008928092023,41.675105088867326 L -82.4392777167916,41.675105088867326 L -81.27774654816716,42.209025987306816 L -80.24744767934794,42.36619985612255 L -78.93936214874375,42.86361135514798 L -78.92,42.964999999999996 L -79.01,43.27000000000001 L -79.17167355011186,43.46633942318426 L -78.72027991404235,43.62508942318493 L -77.7378850979577,43.62905558936328 L -76.82003414580558,43.628784288093755 L -76.50000000000001,44.01845889375865 L -76.37500000000001,44.09631 L -75.31821000000001,44.81645000000001 L -74.86700000000002,45.000480000000096 L -73.34783,45.00738 L -71.50506,45.0082 L -71.405,45.255 L -71.08482000000004,45.30524000000014 L -70.66,45.46 L -70.305,45.915 L -69.99997,46.69307 L -69.237216,47.447781 L -68.90500000000003,47.18500000000006 L -68.23444,47.354859999999974 L -67.79046000000001,47.066359999999996 L -67.79134,45.70281000000001 L -67.13741000000002,45.137530000000005 L -66.02605000000003,45.25931 L -64.42549000000001,45.29204 L -66.16173,44.46512 L -66.1234,43.61867 L -65.36406000000001,43.54523 L -64.24656,44.26553000000001 L -63.254709999999996,44.67014 L -61.039880000000004,45.26525 L -59.80286999999999,45.9204 L -60.448600000000006,46.28264 L -60.51815,47.00793 L -61.52072,45.883770000000005 L -63.17329000000001,45.73902 L -64.47219,46.238490000000006 L -64.79854,46.99297 L -65.11545000000001,48.07085 L -64.17099,48.74248 L -65.05626,49.232780000000005 L -66.55243,49.1331 L -68.65,48.3 L -70.25522,46.986059999999995 L -71.10458,46.82171000000001 L -69.95362,47.74488000000001 L -68.51114,49.068360000000006 L -67.23631,49.51155999999999 L -66.39905,50.228970000000004 L -65.36331,50.2982 L -63.86251,50.29099 L -61.72366000000001,50.08046 L -60.03309000000001,50.24277 L -58.77482,51.06430000000001 L -57.12691,51.41972 L -56.409160000000014,51.770700000000005 L -55.68338000000001,52.146640000000005 L -55.756319999999995,53.270360000000004 L -56.15811,53.647490000000005 L -56.93689,53.78032 L -57.333200000000005,54.6265 L -57.975080000000005,54.94549000000001 L -59.56961999999999,55.20407 L -60.46853000000001,55.775479999999995 L -61.798660000000005,56.33945000000001 L -61.396550000000005,56.96745000000001 L -62.502359999999996,58.16708 L -63.804750000000006,59.442600000000006 L -64.58352000000001,60.33558 L -65.24517,59.87071 L -66.20178,58.76731000000001 L -67.64976,58.21206000000001 L -68.37455,58.80106 L -69.28790000000001,58.95736 L -69.62033,60.22125 L -69.59042,61.06141000000001 L -71.37369000000001,61.137170000000005 L -71.67708,61.52535 L -72.90853,62.105070000000005 L -73.83988000000001,62.44380000000001 L -74.66820000000001,62.18111 L -75.69621000000001,62.278400000000005 L -77.41067,62.55053 L -78.10687,62.31964000000001 L -77.77272000000002,60.757880000000014 L -77.33676,59.852610000000006 L -78.51688,58.80458 L -77.30226,58.05209 L -76.62319000000001,57.202630000000006 L -76.54137,56.53423000000001 L -77.0956,55.83741 L -78.22874,55.136449999999996 L -79.82958000000002,54.66772 L -79.12421,54.14145 L -78.60191,52.56208 L -79.14301,51.533930000000005 L -79.91289,51.208420000000004 L -81.40075,52.157880000000006 L -82.12502,53.277029999999996 L -82.43620000000001,54.28227000000001 L -82.27285,55.14832 L -83.36055,55.244890000000005 L -85.01181000000001,55.302600000000005 L -86.07121,55.72383 L -87.32421,55.999140000000004 L -88.03978000000002,56.47162 L -89.03953,56.85172 L -90.89769,57.284679999999994 L -92.29702999999999,57.08709 L -92.76462000000001,57.84571 L -93.21502000000001,58.782120000000006 L -94.6846,58.94882 L -94.62930999999999,60.11021 L -94.24153,60.89865000000001 L -93.15698000000002,62.02469000000001 L -91.93342000000001,62.83508 L -90.77004000000001,62.960210000000004 L -90.70398,63.61017000000001 L -89.91444,64.03273 L -88.48296,64.09897000000001 L -87.32324,64.77563000000002 L -87.03143,65.21297 L -86.06760000000001,66.05625 L -85.76943,66.55833 L -84.73542,66.2573 L -83.34456,66.41154 L -81.38653000000001,67.11078 L -81.25928,67.59716 L -81.96436000000001,68.13253 L -81.22019999999999,68.66567 L -81.28043000000001,69.16202000000001 L -82.62258,69.65826 L -84.10081000000001,69.80539 L -85.52197,69.88211 L -85.57664,68.78456 L -86.30606999999999,67.92146 L -87.35017,67.19872 L -88.31748999999999,67.87338000000001 L -88.01966,68.61508 L -89.21515,69.25873 L -90.55151000000001,68.47499 L -90.5471,69.49766 L -92.40692000000001,69.69997000000001 L -91.51964000000001,70.19129000000001 L -92.87818,71.31869 L -93.88997,71.76015 L -95.2088,71.92053 L -96.39115,71.19482 L -96.47131,70.08976 L -95.30408,69.68571 L -94.23282000000002,69.06903000000001 L -94.685,68.06383 L -95.48943,68.0907 L -96.12588,67.29338000000001 L -96.11991,68.23939 L -97.66948000000001,68.57864000000001 L -98.5586,68.40394 L -98.4432,67.78165 L -99.90195,67.80566 L -101.45433,67.64689 L -103.22115000000001,68.09775 L -104.33791000000001,68.018 L -105.34282000000002,68.56122 L -106.15000000000002,68.8 L -106.95,68.7 L -108.16721000000001,68.65392 L -108.81299,68.31164 L -107.79239,67.88736 L -108.8802,67.38144 L -109.94619,67.98104000000001 L -110.798,67.80611999999999 L -113.49727000000001,67.68815000000001 L -115.30489,67.90261000000001 L -113.89794,68.3989 L -115.24690000000001,68.90591 L -116.22643000000001,68.84151 L -117.60268,69.01128 L -119.94288,69.37786 L -121.47226,69.79778 L -122.6835,69.85553 L -123.06108,69.56372 L -124.28968,69.39968999999999 L -124.42483000000001,70.1584 L -125.75632000000002,69.48058 L -127.44712000000003,70.37721 L -128.13817,70.48384 L -128.36156,70.01286 L -129.10773,69.77927000000001 L -129.79471,70.19369 L -131.43135999999998,69.94451 L -132.92925000000002,69.50534 L -134.41464000000002,69.62743 L -135.62576,69.31512000000001 L -136.50358,68.89804 L -137.54636000000002,68.99002 L -139.12052,69.47102 L -140.98598761037601,69.71199839952635 L -140.986,69.712 L -140.99250000000004,66.00003000000001 L -140.99778,60.306390000000015 L -140.013,60.276820000000015 L -139.03900000000002,59.99999999999999 L -138.34089,59.562110000000004 L -137.4525,58.905 L -136.47972000000004,59.463890000000056 L -135.47583,59.78778000000001 L -134.94500000000005,59.2705600000001 L -134.27111000000002,58.86111000000005 L -133.35556000000003,58.41028000000001 L -132.73042,57.69289 L -131.70781,56.55212 L -130.00778000000003,55.91583000000008 L -129.98,55.285000000000004 L -130.53611,54.80278000000001 L -130.53610895273684,54.802754476799244 L -130.51497,54.28757 L -129.30523,53.561589999999995 L -129.12979,52.75538 L -127.85032000000001,52.32961 L -127.99276,51.71583 L -127.43561000000001,50.83061 L -125.62461,50.416560000000004 L -124.91024,49.98456 L -122.97421000000001,49.00253777777778 L -122.84000000000005,49.000000000000114 z" /><path fill-rule="evenodd" fill="#66cc99" stroke="#555555" stroke-width="1.9083531156284692" opacity="0.6" d="M -121.53787999999999,74.44893000000002 L -124.91774999999996,74.29275000000014 L -123.93999999999996,73.68000000000012 L -124.80729000000002,73.02255999999994 L -125.49999999999996,72.29226081179502 L -125.92894873747338,71.86868846301138 L -123.61999999999999,71.34000000000009 L -123.09218999999996,70.90164000000004 L -120.46,71.38360179308756 L -120.46,71.82000000000005 L -119.22000000000004,72.51999999999998 L -116.76793999999995,73.22291999999999 L -115.51080999999999,73.47519 L -116.58442000000002,73.89607000000007 L -117.55563999999993,74.18576999999993 L -120.10978,74.24135000000001 L -121.53787999999999,74.44893000000002 z" /><path fill-rule="evenodd" fill="#66cc99" stroke="#555555" stroke-width="1.9083531156284692" opacity="0.6" d="M -111.2644433256309,78.15295604116154 L -112.7245867582539,78.05105011668196 L -113.53427893761912,77.73220652944111 L -112.0511911690585,77.4092288276169 L -110.18693803591302,77.69701487905034 L -109.85445187054711,77.99632477488488 L -111.2644433256309,78.15295604116154 z" /><path fill-rule="evenodd" fill="#66cc99" stroke="#555555" stroke-width="1.9083531156284692" opacity="0.6" d="M -110.96366065147602,78.8044408230652 L -111.5000103422334,78.8499935981305 L -112.52589087609164,78.55055451121522 L -112.54209143761516,78.4079017198735 L -110.88131425661892,78.40691986765997 L -109.6631457182026,78.60197256134565 L -110.96366065147602,78.8044408230652 z" /><path fill-rule="evenodd" fill="#66cc99" stroke="#555555" stroke-width="1.9083531156284692" opacity="0.6" d="M -107.81943000000001,75.84552000000001 L -108.21141,76.20168000000001 L -108.54858999999999,76.67832000000001 L -109.58109999999999,76.79417 L -110.49726000000001,76.42982 L -109.06710000000002,75.47321000000001 L -110.81422,75.54919 L -112.59056000000001,76.14134 L -115.40487000000002,76.47887 L -116.34602,76.19903000000001 L -117.7104,75.2222 L -116.31221000000001,75.04343 L -111.79420999999999,75.16250000000001 L -113.87135,74.72029 L -113.74381,74.39427 L -112.22306999999999,74.41696 L -109.70000000000002,74.85000000000001 L -106.31347000000001,75.00527 L -105.70498,75.47951 L -105.881,75.96940000000001 L -106.92893000000001,76.01282 L -107.81943000000001,75.84552000000001 z" /><path fill-rule="evenodd" fill="#66cc99" stroke="#555555" stroke-width="1.9083531156284692" opacity="0.6" d="M -106.6,73.60000000000001 L -106.94,73.46000000000001 L -105.38000000000001,72.76 L -104.5,73.42 L -105.26,73.64 L -106.6,73.60000000000001 z" /><path fill-rule="evenodd" fill="#66cc99" stroke="#555555" stroke-width="1.9083531156284692" opacity="0.6" d="M -106.52258999999992,73.07601 L -107.51645000000002,73.23597999999998 L -108.39639,73.08953000000008 L -107.68599,72.0654800000001 L -108.18834999999997,71.65089 L -109.00653999999997,72.63335000000001 L -109.92034999999993,72.96113000000008 L -111.05039,72.45040000000006 L -112.44101999999992,72.95540000000011 L -114.66633999999999,72.65277000000009 L -114.16716999999994,73.1214500000001 L -115.18909000000002,73.31459000000012 L -117.86641999999996,72.70594000000006 L -118.56266999999998,72.30785000000003 L -119.40199000000001,71.55858999999998 L -117.65567999999998,71.29520000000002 L -116.11311,71.30917999999997 L -118.43238000000004,70.90920000000006 L -117.90480000000002,70.54056000000014 L -116.48684000000003,70.52044999999998 L -114.35000000000002,70.60000000000002 L -112.41610000000003,70.36637999999999 L -113.72140999999999,70.1923700000001 L -115.13112000000001,70.23730000000008 L -116.67472999999994,70.06655 L -117.34000000000003,69.9600000000001 L -116.10793999999997,69.16821000000004 L -115.22000000000003,69.28000000000009 L -113.85495999999989,69.00744000000009 L -113.31320000000005,68.53553999999997 L -111.53414887520017,68.63005915681794 L -108.99999999999994,68.78000000000003 L -107.12254000000001,69.11922000000004 L -105.96000000000004,69.18000000000012 L -104.24000000000002,68.91000000000008 L -102.43024000000003,68.75281999999999 L -102.09329000000002,69.11962000000011 L -102.73115999999995,69.50402000000004 L -101.08928999999995,69.58447000000012 L -100.98077999999994,70.02431999999999 L -102.78537,70.49776000000003 L -104.46475999999991,70.99297000000007 L -104.77484000000004,71.6984000000001 L -105.40245999999996,72.67259000000007 L -106.52258999999992,73.07601 z" /><path fill-rule="evenodd" fill="#66cc99" stroke="#555555" stroke-width="1.9083531156284692" opacity="0.6" d="M -105.4922891914932,79.30159393992916 L -105.41958045125853,78.91833567983649 L -104.21042945027713,78.67742015249176 L -105.17613277873151,78.3803323432458 L -102.94980872273302,78.34322866486023 L -101.30394019245301,78.01898489044486 L -99.67093909381364,77.90754466420744 L -100.0601918200522,78.32475434031589 L -100.82515804726881,78.80046173777872 L -103.52928239623795,79.16534902619163 L -105.4922891914932,79.30159393992916 z" /><path fill-rule="evenodd" fill="#66cc99" stroke="#555555" stroke-width="1.9083531156284692" opacity="0.6" d="M -100.43836,72.70588000000001 L -102.48000000000002,72.83000000000001 L -102.5,72.51 L -100.01482,71.73827000000001 L -99.32286,71.35639 L -98.35966,71.27284999999999 L -96.72000000000001,71.66 L -96.54,72.56 L -98.05359,72.99052 L -97.12,73.47 L -97.38,73.76 L -99.16387,73.63339 L -100.35642000000001,73.84389 L -101.54,73.36 L -100.43836,72.70588000000001 z" /><path fill-rule="evenodd" fill="#66cc99" stroke="#555555" stroke-width="1.9083531156284692" opacity="0.6" d="M -98.50000000000001,76.72 L -98.57699,76.58859000000001 L -99.98349000000002,76.64634 L -101.48973,76.30537 L -102.56552000000002,76.3366 L -102.50209,75.5638 L -100.86292000000002,75.64075 L -100.88365999999999,75.05736 L -99.80874,74.89744 L -98.16000000000001,75.0 L -97.70441500000003,75.74344 L -97.735585,76.25656000000001 L -98.50000000000001,76.72 z" /><path fill-rule="evenodd" fill="#66cc99" stroke="#555555" stroke-width="1.9083531156284692" opacity="0.6" d="M -96.75439876990876,78.76581268992702 L -97.33723141151266,78.83198436147676 L -98.63198442258553,78.87193024363837 L -98.55286780474668,78.45810537384507 L -98.12428931353404,78.08285696075761 L -97.30984290239799,77.85059723582181 L -95.83029496944934,78.05694122996324 L -95.5592779202946,78.41831452098033 L -96.75439876990876,78.76581268992702 z" /><path fill-rule="evenodd" fill="#66cc99" stroke="#555555" stroke-width="1.9083531156284692" opacity="0.6" d="M -96.25740120380057,69.49003035832177 L -96.55740120380055,69.68003035832177 L -97.15740120380055,69.86003035832177 L -98.21826120380057,70.14354035832177 L -98.91740120380055,69.71003035832177 L -99.79740120380055,69.40003035832177 L -98.43180120380055,68.95070035832177 L -97.61740120380055,69.06003035832177 L -96.26952120380055,68.75704035832177 L -95.64768120380054,69.10769035832178 L -96.25740120380057,69.49003035832177 z" /><path fill-rule="evenodd" fill="#66cc99" stroke="#555555" stroke-width="1.9083531156284692" opacity="0.6" d="M -96.01644,80.60233000000001 L -96.70972,80.15777 L -96.07614000000001,79.70502 L -94.974,79.37248 L -93.14524,79.3801 L -93.93574,79.11373 L -93.95116000000002,78.75099 L -92.87669000000001,78.34333000000001 L -90.80436,78.21533000000001 L -89.03535000000001,78.28723 L -87.18755999999999,79.0393 L -85.81435,79.3369 L -87.02000000000001,79.66000000000001 L -87.81,80.32000000000001 L -89.45000000000002,80.50932203389833 L -91.13288999999999,80.72345000000003 L -92.40983999999999,81.25739000000003 L -94.73542,81.20646000000002 L -94.29843,80.97727 L -95.32345000000001,80.90729 L -96.01644,80.60233000000001 z" /><path fill-rule="evenodd" fill="#66cc99" stroke="#555555" stroke-width="1.9083531156284692" opacity="0.6" d="M -94.50365759965237,74.13490672473922 L -95.49579342322404,73.86241689726417 L -96.01826799191102,73.43742991809582 L -96.03374508338244,72.94027680123185 L -95.40985551632266,72.06188080513458 L -94.26904659704726,72.02459625923599 L -93.19629553910026,72.77199249947334 L -92.00396521682987,72.96624420845853 L -90.50979285354263,73.85673248971206 L -92.42001217321173,74.1000251329422 L -94.50365759965237,74.13490672473922 z" /><path fill-rule="evenodd" fill="#66cc99" stroke="#555555" stroke-width="1.9083531156284692" opacity="0.6" d="M -93.84000301794399,77.51999726023455 L -93.7206562975659,77.63433136668031 L -94.42257727738641,77.820004787905 L -96.43630449093614,77.83462921824362 L -96.16965410031007,77.55511139597685 L -94.29560828324529,77.49134267852868 L -93.84000301794399,77.51999726023455 z" /><path fill-rule="evenodd" fill="#66cc99" stroke="#555555" stroke-width="1.9083531156284692" opacity="0.6" d="M -93.61275590694046,74.97999726022438 L -93.97774654821797,75.29648956979597 L -94.85081987178917,75.64721751576089 L -96.28858740922982,75.37782827422338 L -96.82093217648455,74.92762319609658 L -95.60868058956564,74.66686391875176 L -94.15690873897391,74.59234650338688 L -93.61275590694046,74.97999726022438 z" /><path fill-rule="evenodd" fill="#66cc99" stroke="#555555" stroke-width="1.9083531156284692" opacity="0.6" d="M -91.58702000000001,81.89429000000001 L -91.36786000000002,81.5531 L -90.2,81.26 L -89.36663000000001,80.85569000000001 L -87.59895,80.51627000000002 L -84.1,80.58 L -81.84823,80.46442 L -83.40869565217389,80.10000000000001 L -84.19844,80.20836 L -86.93179,80.25145 L -86.50734,79.73624 L -85.09495,79.34543000000001 L -85.37868,78.99690000000001 L -87.15198000000002,78.75867 L -87.96191999999999,78.37181 L -86.34000000000002,78.18 L -84.97634,77.53873 L -87.65,77.97022222222223 L -88.26,77.9 L -87.76739,77.17833 L -89.6161,76.95213000000001 L -89.49068,76.47239000000002 L -87.60000000000001,76.42 L -86.11184,76.29901000000001 L -83.17439,76.45403 L -80.56125,76.17812 L -77.88911,76.77795500000002 L -77.91089000000001,77.02204500000002 L -79.61965000000001,76.98336 L -79.75951,77.20967999999999 L -78.36269,77.50859000000001 L -77.88851000000001,77.89991 L -76.34354,78.18296000000001 L -75.39345,78.52581 L -76.22046,79.01907 L -75.52924,79.19766000000001 L -76.90773,79.32309000000001 L -73.88000000000001,79.43016220480206 L -73.2428,79.63415 L -71.18,79.8 L -69.4697,80.61683000000001 L -67.84,80.90000000000003 L -65.48031,81.50657000000002 L -67.65755,81.50141 L -66.75342,81.72527000000001 L -64.334,81.92775000000002 L -61.89388,82.36165000000001 L -61.85000000000001,82.62860000000002 L -63.67999999999999,82.9 L -65.82735,83.02801000000001 L -68.50000000000001,83.10632151676572 L -70.66576500000001,83.16978075838284 L -72.83153,83.23324000000001 L -75.71878000000001,83.06404000000002 L -76.25,83.17205882352941 L -79.30664,83.13056 L -81.1,83.02 L -82.42,82.86000000000001 L -83.18,82.32 L -84.260005,82.60000000000001 L -85.5,82.65227345805702 L -86.97024,82.27961 L -88.93227,82.11751000000001 L -90.10000000000001,82.08500000000004 L -91.58702000000001,81.89429000000001 z" /><path fill-rule="evenodd" fill="#66cc99" stroke="#555555" stroke-width="1.9083531156284692" opacity="0.6" d="M -88.15035030796028,74.39230703398503 L -86.09745235873332,74.41003205026117 L -83.22889360221143,74.56402781849094 L -81.94884253612557,74.44245901152432 L -80.45777075877587,74.65730377877777 L -79.83393286814837,74.92312734648716 L -80.05751095245915,75.33684886341591 L -81.12853084992436,75.71398346628199 L -82.75344458691006,75.78431509063124 L -84.78962521029058,75.69920400664653 L -86.37919226758864,75.4824213731821 L -87.83827633334965,75.56618886992725 L -89.18708289259985,75.61016551380762 L -89.82223792189926,75.84777374948565 L -90.96966142450802,76.07401317005947 L -90.7418458727493,76.44959747995681 L -91.6050231595366,76.7785179714946 L -93.57392106807313,76.77629588490605 L -94.68408586299944,77.09787832305837 L -96.74512285031237,77.16138865834507 L -97.1213789538295,76.7510777859476 L -95.9624574450358,76.4413809272224 L -93.89382402217599,76.31924367950056 L -92.88990597204175,75.88265534128267 L -92.76828548864282,75.38681997344214 L -92.42244096552946,74.83775788034099 L -89.7647220527584,74.51555532500116 L -88.15035030796028,74.39230703398503 z" /><path fill-rule="evenodd" fill="#66cc99" stroke="#555555" stroke-width="1.9083531156284692" opacity="0.6" d="M -83.99367000000001,62.452799999999996 L -83.77462000000001,62.18231 L -83.06857000000001,62.15922000000001 L -81.89825,62.7108 L -81.87699,62.904579999999996 L -83.25048,62.91409000000001 L -83.99367000000001,62.452799999999996 z" /><path fill-rule="evenodd" fill="#66cc99" stroke="#555555" stroke-width="1.9083531156284692" opacity="0.6" d="M -83.88262630891977,65.10961782496354 L -84.4640120104195,65.37177236598022 L -84.97576371940592,65.21751821558898 L -85.1613079495499,65.6572846543928 L -85.88384782585486,65.7387783881171 L -86.2248864407651,64.82291697860823 L -86.35275977247133,64.0358332383707 L -87.22198320183678,63.54123810490519 L -85.8667687649824,63.63725291610349 L -85.52340471061905,63.052379055424055 L -84.10041663281388,63.56971181909801 L -83.10879757356511,64.10187571883971 L -82.54717810741704,63.65172231714521 L -80.99101986359572,63.41124603947496 L -80.10345130076664,63.725981350348626 L -80.81736121287886,64.057485663501 L -81.55344031444432,63.97960928003714 L -81.6420137193926,64.45513580998697 L -82.78757687043883,64.76669302027467 L -83.88262630891977,65.10961782496354 z" /><path fill-rule="evenodd" fill="#66cc99" stroke="#555555" stroke-width="1.9083531156284692" opacity="0.6" d="M -80.315395,62.08556500000002 L -80.36215,62.01649000000001 L -80.09956000000001,61.71810000000001 L -79.65752,61.63308 L -79.26582,62.15867499999999 L -79.52002,62.363710000000005 L -79.92939,62.3856 L -80.315395,62.08556500000002 z" /><path fill-rule="evenodd" fill="#66cc99" stroke="#555555" stroke-width="1.9083531156284692" opacity="0.6" d="M -79.77583312988281,72.8029022216797 L -79.4862518310547,72.74220275878906 L -78.39167022705078,72.87665557861328 L -77.31443786621094,72.85554504394531 L -76.25140380859375,72.82638549804688 L -76.34,73.10268498995305 L -78.06443786621094,73.65193176269531 L -80.35305786132812,73.75971984863281 L -80.83388519287111,73.69318389892578 L -80.87609863281251,73.33318328857422 L -79.77583312988281,72.8029022216797 z" /><path fill-rule="evenodd" fill="#66cc99" stroke="#555555" stroke-width="1.9083531156284692" opacity="0.6" d="M -78.77063859731078,72.35217316353418 L -80.74894161652443,72.06190664335074 L -80.60008765330768,72.71654368762417 L -82.31559017610101,73.7509508328106 L -84.85011247428822,73.34027822538708 L -85.77437130404454,72.53412588163387 L -86.56217851433412,73.15744700793844 L -85.82615108920098,73.80381582304518 L -88.40824154331287,73.53788890247121 L -89.436576707705,73.12946421985238 L -90.20516028518205,72.2350743679608 L -89.88815121128755,71.22255219184997 L -88.46772111688084,71.21818553332132 L -89.51341956252303,70.76203766548095 L -88.68171322300148,70.4107412787608 L -87.06000342481789,70.26000112576538 L -84.94470618359851,69.96663401964442 L -81.30547095409176,69.74318512641436 L -79.49245500356366,69.87180776638884 L -78.95724219431673,70.16688019477543 L -78.1686339993266,69.82648753526887 L -77.28736996123715,69.76954010688321 L -76.22864905465738,69.14776927354741 L -76.86910091826672,68.89473562283025 L -74.84330725777684,68.55462718370127 L -73.31161780464572,68.06943716091288 L -72.92605994331605,67.72692576768235 L -72.65116716173944,67.28457550726391 L -73.94491248238262,66.31057811142666 L -74.29388342964964,65.81177134872938 L -73.95979529488268,65.45476471624094 L -76.01827429879717,65.32696889918314 L -77.89728105336198,65.30919220647475 L -78.5559488593542,64.57290639918013 L -77.70997982452008,64.22954234481678 L -74.81850257027673,64.38909332951793 L -74.83441891142263,64.6790756293238 L -73.37830624051838,64.19396312118384 L -71.88627844917127,63.679989325608865 L -72.23537858751902,63.397836005295225 L -71.02343705919385,62.91070811629588 L -68.87736650254465,62.33014923771282 L -66.16556820338015,61.93089712182583 L -66.32829728866726,62.28007477482202 L -67.36968075221309,62.88396556258484 L -68.7831862046927,63.74567007105183 L -66.27504472519048,62.94509878198612 L -65.01380388045888,62.67418508569598 L -64.66940629744968,63.3929267442275 L -65.32016760930125,64.38273712834605 L -65.73208045109976,64.64840566675856 L -67.08964616562342,65.10845510523696 L -68.1412874009792,65.68978913030439 L -68.015016038674,66.26272573512439 L -66.72121904159852,66.38804108343219 L -65.14886023625368,65.42603261988667 L -63.918444383384184,64.9986685248329 L -62.16317684594226,66.16025136988962 L -61.85198137068061,66.86212067327783 L -63.4249344549968,66.92847321234059 L -64.86231441919524,67.84753856065159 L -66.4498660956339,68.06716339789203 L -68.8051228502006,68.72019847276444 L -66.9690333726542,69.18608734809182 L -67.91497046575694,70.12194753689765 L -68.7860542466849,70.52502370877427 L -71.20001542833518,70.92001251899718 L -72.24222571479768,71.55692454699452 L -74.09914079455771,71.33084015571758 L -74.228616095665,71.76714427355789 L -75.60584469267573,72.2436784939374 L -77.8246239895596,72.74961660429098 L -78.77063859731078,72.35217316353418 z" /><path fill-rule="evenodd" fill="#66cc99" stroke="#555555" stroke-width="1.9083531156284692" opacity="0.6" d="M -75.21597,67.44425 L -75.10333,67.58202 L -75.11449999999999,68.01035999999999 L -75.89521,68.28721 L -76.81166,68.14856 L -77.2364,67.58809000000001 L -76.98687,67.09873 L -75.86588,67.14886 L -75.21597,67.44425 z" /><path fill-rule="evenodd" fill="#66cc99" stroke="#555555" stroke-width="1.9083531156284692" opacity="0.6" d="M -64.51912,49.87304 L -63.58926,49.400690000000004 L -62.29318,49.08717000000001 L -61.806304999999995,49.10506000000001 L -61.835584999999995,49.28855000000001 L -62.858290000000004,49.70641 L -64.17322,49.95718 L -64.51912,49.87304 z" /><path fill-rule="evenodd" fill="#66cc99" stroke="#555555" stroke-width="1.9083531156284692" opacity="0.6" d="M -64.01486,47.03601 L -64.39261,46.72747 L -64.14280000000001,46.39265000000001 L -62.87433000000001,45.96818000000001 L -62.503910000000005,46.03339000000001 L -62.012080000000005,46.44314 L -62.93930000000001,46.415870000000005 L -63.664500000000004,46.55001 L -64.01486,47.03601 z" /><path fill-rule="evenodd" fill="#66cc99" stroke="#555555" stroke-width="1.9083531156284692" opacity="0.6" d="M -55.600218268442056,51.31707469339794 L -55.40697424988659,51.5882726100657 L -55.87097693543532,51.6320942246492 L -56.738650071832026,51.28743825947855 L -57.35868974468607,50.718274034215874 L -58.3918049790652,49.12558055276418 L -59.23162451845657,48.5231883815378 L -58.79658647320745,48.25152537697942 L -59.41949418805368,47.899453843774886 L -59.26601518414682,47.60334788674247 L -57.325229254777085,47.57280711525797 L -56.250798712780586,47.63254507098738 L -55.29121904155279,47.38956248635099 L -55.99748084168583,46.919720363953275 L -55.40077307801156,46.884993801453135 L -54.24048214376214,47.752279364607645 L -53.96186865906049,47.62520701760193 L -54.17893551290251,46.80706574155699 L -53.521456264853,46.61829173439477 L -53.069158291218386,46.65549876564492 L -52.64809872090421,47.53554840757552 L -52.95864824076221,48.15716421161447 L -53.086133999226256,48.68780365660358 L -53.78601375997125,48.51678050393363 L -53.47654944519137,49.24913890237404 L -54.473775397343786,49.556691189159125 L -54.93514258484564,49.31301097268679 L -55.82240108908096,49.58712860777905 L -55.471492275603,49.93581533466846 L -56.14310502788433,50.150117499382866 L -56.79588172059528,49.81230866149089 L -56.13403581401708,50.68700979267928 L -55.600218268442056,51.31707469339794 z" /></g></g></svg>