<svg xmlns="http://www.w3.org/2000/svg" xmlns:xlink="http://www.w3.org/1999/xlink" width="100.0" height="100.0" viewBox="24.213423600000002 21.513353600000002 13.139452799999969 10.5589728" preserveAspectRatio="xMinYMin meet"><g transform="matrix(1,0,0,-1,0,53.58568)"><g><path fill-rule="evenodd" fill="#66cc99" stroke="#555555" stroke-width="0.26278905599999935" opacity="0.6" d="M 36.86622999999997,22.0 L 36.69069000000001,22.204849999999997 L 35.52598,23.102440000000005 L 35.49372,23.752370000000003 L 35.69241,23.926709999999996 L 34.79507,25.033749999999998 L 34.47387000000001,25.598560000000006 L 34.10455000000001,26.142269999999996 L 33.34876,27.69989 L 32.73482,28.70523 L 32.32046,29.760430000000003 L 32.42323000000001,29.851080000000003 L 33.13676,28.417650000000005 L 33.58811,27.97136 L 33.92136000000001,27.648700000000005 L 34.15451000000001,27.823300000000003 L 34.42655,28.343989999999998 L 34.64174,29.09942 L 34.9226,29.501330000000003 L 34.823243288783814,29.76108076171822 L 34.265440000000005,31.219359999999998 L 34.26543474464621,31.219357309520323 L 33.7734,30.967460000000003 L 32.99392,31.02407 L 32.19247,31.26034 L 31.960410000000003,30.933600000000002 L 31.687960000000007,31.429600000000008 L 30.976930000000007,31.555859999999992 L 30.09503,31.473400000000005 L 29.683419999999998,31.186860000000003 L 28.913529999999998,30.870050000000003 L 28.450480000000006,31.02577000000001 L 27.457620000000002,31.32126 L 26.49533,31.585680000000004 L 25.16482,31.569150000000008 L 24.802869999999988,31.089290000000005 L 24.957620000000002,30.6616 L 24.70007,30.04419000000001 L 25.000000000000004,29.23865452953346 L 25.000000000000004,25.682499996361 L 25.0,22.0 L 29.019999999999982,22.0 L 32.899999999999984,22.0 L 36.86622999999997,22.0 z" /></g></g></svg>