<svg xmlns="http://www.w3.org/2000/svg" xmlns:xlink="http://www.w3.org/1999/xlink" width="100.0" height="100.0" viewBox="-0.376 0.624043028998616 4.752000000000001 4.751848547908749" preserveAspectRatio="xMinYMin meet"><g transform="matrix(1,0,0,-1,0,5.999934605905982)"><g><path fill-rule="evenodd" fill="#66cc99" stroke="#555555" stroke-width="0.09504000000000001" opacity="0.6" d="M 4.063245553203368,4.189736659610102 L 4.081155800819382,4.1827942449678455 L 4.098317438740024,4.174165671817387 L 4.114572161971609,4.16393053315704 L 4.129770031221028,4.152183241511322 L 4.143770855988596,4.139032158036572 L 4.156445487734611,4.124598592959471 L 4.167677011190975,4.109015686568776 L 4.177361822828818,4.092427181082401 L 4.18541058653394,4.0749860947185566 L 4.191749057674601,4.056853310201804 L 4.1963187679601575,4.0381960907241305 L 4.19907756477317,4.019186537050346 L 4.2,4.0 L 4.2,1.0 L 4.199062193653373,0.9806546373022593 L 4.196257569420928,0.961490696643676 L 4.191612429246718,0.9426878986760103 L 4.185170335550106,0.9244225772319465 L 4.176991702694634,0.9068660256552188 L 4.167153230418288,0.8901828904007627 L 4.155747184538486,0.8745296269698108 L 4.142880531677389,0.8600530326602731 L 4.128673936122127,0.8468888698923597 L 4.113260628227456,0.8351605930199884 L 4.0967851549730385,0.8249781905680185 L 4.079402024392691,0.8164371537528836 L 4.061274256588238,0.8096175809599039 L 4.042571854916652,0.8045834265755447 L 4.023470211687781,0.8013819012191216 L 4.004148463324134,0.800043028998616 L 3.9847878104081467,0.8005793659426851 L 3.965569818371612,0.802985882249428 L 3.946674714763544,0.8072400094561876 L 3.928279699064781,0.8133018520880252 L 3.9105572809000084,0.8211145618000169 L 1.9105572809000084,1.8211145618000169 L 1.8934541329406942,1.830742863628795 L 1.8773770799250564,1.8420012042061902 L 1.8624809526622472,1.8547811595580075 L 1.8489092090008588,1.8689596517279743 L 1.83679255225142,1.8844001340857417 L 1.8262476724420662,1.9009539063455783 L 1.8173761225297793,1.9184615466314092 L 1.8102633403898971,1.9367544467966324 L 0.8102633403898972,4.936754446796632 L 0.8050624740605901,4.955285785474619 L 0.8016670193069104,4.974231244318079 L 0.8001084230926345,4.993415360185494 L 0.8004011203380448,5.012660459616156 L 0.8025424002310876,5.0317883043508145 L 0.8065124313335268,5.050621742083188 L 0.8122744452495732,5.068986347153944 L 0.8197750771559436,5.086712035991861 L 0.8289448600395375,5.103634642340805 L 0.8396988680653505,5.119597437683548 L 0.8519375031160854,5.134452582781071 L 0.8655474172189287,5.148062496883915 L 0.880402562316452,5.1603011319346495 L 0.8963653576591948,5.171055139960463 L 0.913287964008138,5.180224922844056 L 0.9310136528460558,5.187725554750426 L 0.9493782579168116,5.193487568666473 L 0.9682116956491856,5.197457599768913 L 0.9873395403838441,5.199598879661956 L 1.0065846398145062,5.1998915769073655 L 1.0257687556819208,5.19833298069309 L 1.0447142145253814,5.19493752593941 L 1.0632455532033676,5.189736659610102 L 4.063245553203368,4.189736659610102 z M 2.0,2.0 L 4.0,1.0 L 4.0,4.0 L 1.0,5.0 L 2.0,2.0 z" /><path fill-rule="evenodd" fill="#66cc99" stroke="#555555" stroke-width="0.09504000000000001" opacity="0.6" d="M -0.2,3.0 L -0.19903694533443939,3.019603428065912 L -0.1961570560806461,3.039018064403226 L -0.19138806714644177,3.0580569354508924 L -0.18477590650225736,3.076536686473018 L -0.176384252869671,3.0942793473651995 L -0.16629392246050909,3.1111140466039204 L -0.1546020906725474,3.126878656832729 L -0.1414213562373095,3.1414213562373097 L -0.1268786568327291,3.1546020906725474 L -0.1111140466039204,3.1662939224605093 L -0.09427934736519955,3.176384252869671 L -0.07653668647301795,3.1847759065022574 L -0.05805693545089244,3.1913880671464416 L -0.03901806440322564,3.1961570560806463 L -0.01960342806591213,3.1990369453344396 L 0.0,3.2 L 1.0,3.2 L 1.019603428065912,3.1990369453344396 L 1.0390180644032256,3.1961570560806463 L 1.0580569354508924,3.1913880671464416 L 1.076536686473018,3.1847759065022574 L 1.0942793473651995,3.176384252869671 L 1.1111140466039204,3.166293922460509 L 1.1268786568327291,3.1546020906725474 L 1.1414213562373094,3.1414213562373097 L 1.1546020906725474,3.126878656832729 L 1.1662939224605091,3.1111140466039204 L 1.176384252869671,3.0942793473651995 L 1.1847759065022574,3.076536686473018 L 1.1913880671464419,3.0580569354508924 L 1.196157056080646,3.039018064403226 L 1.1990369453344394,3.019603428065912 L 1.2,3.0 L 1.2,2.0 L 1.1990369453344394,1.980396571934088 L 1.196157056080646,1.9609819355967744 L 1.1913880671464419,1.9419430645491076 L 1.1847759065022574,1.923463313526982 L 1.176384252869671,1.9057206526348005 L 1.1662939224605091,1.8888859533960796 L 1.1546020906725474,1.8731213431672709 L 1.1414213562373094,1.8585786437626906 L 1.1268786568327291,1.8453979093274526 L 1.1111140466039204,1.8337060775394909 L 1.0942793473651995,1.823615747130329 L 1.076536686473018,1.8152240934977426 L 1.0580569354508924,1.8086119328535581 L 1.0390180644032256,1.803842943919354 L 1.019603428065912,1.8009630546655606 L 1.0,1.8 L 0.0,1.8 L -0.01960342806591213,1.8009630546655606 L -0.03901806440322564,1.803842943919354 L -0.05805693545089244,1.8086119328535581 L -0.07653668647301795,1.8152240934977426 L -0.09427934736519955,1.823615747130329 L -0.1111140466039204,1.8337060775394909 L -0.1268786568327291,1.8453979093274526 L -0.1414213562373095,1.8585786437626906 L -0.1546020906725474,1.8731213431672709 L -0.16629392246050909,1.8888859533960796 L -0.176384252869671,1.9057206526348005 L -0.18477590650225736,1.923463313526982 L -0.19138806714644177,1.9419430645491076 L -0.1961570560806461,1.9609819355967744 L -0.19903694533443939,1.980396571934088 L -0.2,2.0 L -0.2,3.0 z M 1.0,2.0 L 1.0,3.0 L 0.0,3.0 L 0.0,2.0 L 1.0,2.0 z" /></g></g></svg>