<svg xmlns="http://www.w3.org/2000/svg" xmlns:xlink="http://www.w3.org/1999/xlink" width="300" height="300" viewBox="1065675.700676 4724068.465675999 645694.308648 660638.576448001" preserveAspectRatio="xMinYMin meet"><g transform="matrix(1,0,0,-1,0,10108775.5078)"><g><path fill-rule="evenodd" fill="#66cc99" stroke="#555555" stroke-width="4404.257176320007" opacity="0.6" d="M 1218477.7781,4806498.4488 L 1229729.7347,4798718.6067 L 1229997.9013,4793432.2369 L 1221603.1693,4794301.7685 L 1217789.5399,4790489.8277 L 1231115.2067,4787137.924 L 1236183.9211,4784331.4255 L 1232509.9445,4771870.0237 L 1217364.4933,4768106.6692 L 1208068.3451,4760567.7875 L 1199129.799,4763418.3939 L 1193856.5725,4757495.7427 L 1195015.1263,4751611.464 L 1181598.8221,4748536.5611 L 1181059.8351,4755904.7585 L 1188964.0741,4762073.5129 L 1188575.8813,4771077.7939 L 1193562.9385,4776877.3095 L 1196403.1733,4784814.7499 L 1201122.0591,4788480.7601 L 1200361.0396,4796922.2422 L 1195572.0567,4808489.5651 L 1198985.5975,4815387.3633 L 1207704.4806,4817129.7889 L 1216154.6733,4813266.2203 L 1218477.7781,4806498.4488 z" /><path fill-rule="evenodd" fill="#66cc99" stroke="#555555" stroke-width="4404.257176320007" opacity="0.6" d="M 1111404.5691,4920177.9986 L 1108800.6957,4914502.166 L 1101068.2698,4916950.6843 L 1096277.6826,4926221.3416 L 1107046.8733,4930884.1834 L 1110194.3531,4928426.7394 L 1111404.5691,4920177.9986 z" /><path fill-rule="evenodd" fill="#66cc99" stroke="#555555" stroke-width="4404.257176320007" opacity="0.6" d="M 1217550.7702,5038520.6587 L 1219439.0835,5031695.3901 L 1214299.8771,5019720.4864 L 1216092.6121,5012025.1494 L 1229242.0292,5001390.3121 L 1229011.6784,4994426.9682 L 1223977.8977,4989853.7654 L 1231081.1118,4981341.34 L 1233514.5629,4970014.3576 L 1250336.9415,4973000.3446 L 1260500.4561,4980937.3094 L 1262496.2128,4970282.4328 L 1267315.2801,4967431.0859 L 1270134.1256,4959840.4135 L 1278449.4726,4957400.1679 L 1283550.5733,4969208.7721 L 1291358.5865,4979564.1307 L 1294282.8433,4974101.3795 L 1303548.4733,4963763.3521 L 1298266.7082,4958113.7976 L 1297687.5213,4951952.4608 L 1288250.0969,4928301.7577 L 1289920.9162,4913355.09 L 1296724.3827,4911569.2997 L 1295378.9127,4900603.4327 L 1302412.951,4893339.4831 L 1303581.7048,4879265.3436 L 1306745.672,4875298.4336 L 1306795.8716,4862631.1581 L 1302699.5081,4856971.5751 L 1307610.9144,4853984.0247 L 1306280.4043,4844820.0336 L 1312392.3265,4841972.3449 L 1308827.0836,4836636.4336 L 1315145.9743,4830066.8586 L 1310825.215,4826096.002 L 1302545.8256,4826990.4113 L 1294518.7261,4823272.5043 L 1282294.7146,4824390.3885 L 1277759.2139,4832783.5132 L 1262946.0033,4835230.6146 L 1256389.5979,4832365.038 L 1243681.5529,4835866.4271 L 1237141.582,4833285.4896 L 1236558.0519,4840008.8904 L 1230182.8929,4851883.4763 L 1220231.2165,4856406.5645 L 1216765.0225,4851222.4604 L 1210125.3337,4853669.2927 L 1198979.0045,4849486.1356 L 1191716.8951,4858055.0056 L 1192495.2879,4863716.2425 L 1184219.7,4870553.723 L 1177965.5599,4873363.2068 L 1167835.5237,4873809.1894 L 1165212.1789,4864147.0607 L 1154381.0869,4860510.5818 L 1145713.5752,4860858.2031 L 1125813.108,4864390.5177 L 1120239.3835,4862435.3249 L 1110718.117,4863890.3235 L 1107254.9259,4869592.5054 L 1111899.6661,4873686.381 L 1112612.1126,4880145.3077 L 1106178.7931,4879426.1598 L 1105329.9549,4886103.7369 L 1100817.3686,4888542.4421 L 1092782.0048,4885619.3189 L 1090143.7961,4895517.1142 L 1091224.1729,4905166.9686 L 1096289.2646,4908329.7856 L 1104323.0942,4909351.8348 L 1118185.9831,4913936.1324 L 1112208.2476,4917011.0798 L 1113322.6202,4923854.0253 L 1111068.33,4931826.5457 L 1106259.7239,4933659.1411 L 1106695.7796,4940592.6288 L 1117187.9995,4967939.0317 L 1122518.3553,4964819.669 L 1130304.0781,4964653.4599 L 1126180.7244,4977802.2913 L 1128324.2433,4985574.8901 L 1147472.9159,5015450.0653 L 1164664.7395,5030305.8076 L 1169830.2383,5037592.6398 L 1183312.6458,5050215.7425 L 1188670.5136,5048500.0511 L 1188873.4521,5058725.2302 L 1191921.2833,5067090.9809 L 1199602.6833,5072881.4636 L 1201994.7462,5079893.6338 L 1209103.1082,5080088.6002 L 1205019.3026,5087481.4721 L 1211542.7226,5085359.0115 L 1218808.8158,5088503.269 L 1228752.7781,5086020.3305 L 1229182.4374,5080891.2393 L 1234108.3942,5076195.8971 L 1229077.5437,5062352.3469 L 1221426.8089,5056736.4856 L 1217550.7702,5038520.6587 z" /><path fill-rule="evenodd" fill="#66cc99" stroke="#555555" stroke-width="4404.257176320007" opacity="0.6" d="M 1125420.1958,4966522.1375 L 1118817.3258,4972012.5867 L 1125376.3259,4982869.816 L 1124814.3323,4976641.044 L 1128289.7921,4970717.0423 L 1125420.1958,4966522.1375 z" /><path fill-rule="evenodd" fill="#66cc99" stroke="#555555" stroke-width="4404.257176320007" opacity="0.6" d="M 1657487.738,5311009.3367 L 1655263.2432,5304153.9944 L 1648900.8236,5302481.0781 L 1641829.8939,5293955.8316 L 1639332.1376,5284300.4001 L 1630127.5869,5261459.7075 L 1619711.6918,5244391.0788 L 1611819.9698,5240681.8348 L 1606559.479,5233548.4497 L 1585108.6728,5224370.6395 L 1578383.9069,5210828.8314 L 1576033.9248,5195792.9217 L 1576986.5635,5178297.8227 L 1581916.1911,5174447.5357 L 1603229.7935,5166421.3836 L 1608230.2131,5161921.9696 L 1610476.1291,5154466.3275 L 1608081.0017,5146802.0917 L 1599817.5912,5140636.1345 L 1586877.4836,5140358.153 L 1578171.4634,5147231.0437 L 1566843.9569,5146563.1136 L 1545088.2951,5142662.2435 L 1522019.8635,5132297.7227 L 1489191.0734,5112552.3222 L 1475323.7179,5102140.3525 L 1467048.4724,5093989.605 L 1460188.9066,5084231.2168 L 1461405.1636,5077146.2952 L 1456634.6289,5068036.0861 L 1453979.0702,5056742.9549 L 1455295.9614,5029172.4397 L 1453579.2628,5021995.1439 L 1432787.0317,5026975.6781 L 1415188.3185,5024465.3549 L 1413591.61,5019742.6681 L 1406255.8931,5015772.4788 L 1399030.4452,5006552.1269 L 1395149.4388,5004766.2101 L 1391174.2007,5011221.2387 L 1392802.3722,5018938.7334 L 1388367.653,5024323.4875 L 1382371.0241,5021045.3635 L 1370731.3716,5019604.0239 L 1362553.226,5032481.3265 L 1357710.8063,5050943.2302 L 1349209.8947,5048959.3476 L 1342693.4409,5055018.6193 L 1333611.5331,5057579.1867 L 1332210.593,5071253.3169 L 1325039.2845,5075376.4406 L 1327166.4745,5084033.7155 L 1325903.3348,5102723.2382 L 1336955.6509,5118634.2509 L 1335204.7894,5126878.2502 L 1350678.5503,5144224.9658 L 1355859.8802,5146779.0448 L 1365475.2623,5161736.1351 L 1365765.3381,5168962.723 L 1376788.3611,5178417.7624 L 1383529.7926,5181248.5186 L 1389413.4315,5180579.1075 L 1399925.831,5190648.6905 L 1405137.0097,5188171.087 L 1413968.0841,5201005.2818 L 1423967.9192,5205415.3233 L 1432420.8744,5214458.9432 L 1437004.9963,5213319.5678 L 1443707.3981,5226034.4455 L 1453271.9852,5229362.64 L 1456359.539,5237399.4001 L 1462643.278,5243640.3749 L 1470430.0653,5243429.3914 L 1473411.948,5248098.6484 L 1493106.4676,5249366.5512 L 1497609.6348,5252405.9725 L 1498903.083,5261572.7246 L 1505250.0196,5263569.4264 L 1511160.2855,5273957.5594 L 1515962.2904,5278763.9656 L 1525731.0481,5280934.9791 L 1528824.4887,5288212.6655 L 1537141.6618,5299228.7584 L 1546356.3982,5306561.0222 L 1554239.2693,5309440.3477 L 1557042.1694,5319333.3865 L 1568189.2955,5328449.5716 L 1570165.1819,5338969.5762 L 1576970.4612,5338695.5651 L 1577004.1295,5332565.9602 L 1585412.3027,5327479.8709 L 1587010.1991,5318103.1696 L 1592924.1383,5315954.7895 L 1595175.1626,5308271.2454 L 1599416.2473,5305383.2162 L 1602941.4182,5296541.7056 L 1615625.2056,5304622.1788 L 1620154.5735,5316540.6342 L 1625754.1804,5322376.4063 L 1638347.7223,5328393.578 L 1641283.9549,5341361.1674 L 1659682.8827,5354328.4749 L 1661737.2805,5360238.9467 L 1667754.2111,5357340.0744 L 1679241.1397,5359477.5331 L 1686901.9139,5353232.6602 L 1679995.829,5344808.8355 L 1673699.3316,5328828.9497 L 1657487.738,5311009.3367 z" /></g></g></svg>