<svg xmlns="http://www.w3.org/2000/svg" xmlns:xlink="http://www.w3.org/1999/xlink" width="100.0" height="100.0" viewBox="-125.61062952 30.425762480000003 24.474866039999995 19.48307104" preserveAspectRatio="xMinYMin meet"><g transform="matrix(1,0,0,-1,0,80.334596)"><g><path fill-rule="evenodd" fill="#66cc99" stroke="#555555" stroke-width="0.4894973207999999" opacity="0.6" d="M -118.369984,32.839273 L -118.496298,32.851572 L -118.605534,33.030999 L -118.369984,32.839273 z" /><path fill-rule="evenodd" fill="#66cc99" stroke="#555555" stroke-width="0.4894973207999999" opacity="0.6" d="M -118.48875,33.419826 L -118.603375,33.478098 L -118.368301,33.40711 L -118.310213,33.335795 L -118.465368,33.326056 L -118.48875,33.419826 z" /><path fill-rule="evenodd" fill="#66cc99" stroke="#555555" stroke-width="0.4894973207999999" opacity="0.6" d="M -120.247393,34.001911 L -120.073609,34.024477 L -119.973691,33.942481 L -120.121817,33.895712 L -120.247393,34.001911 z" /><path fill-rule="evenodd" fill="#66cc99" stroke="#555555" stroke-width="0.4894973207999999" opacity="0.6" d="M -119.919155,34.07728 L -119.755521,34.056716 L -119.721206,33.959583 L -119.873358,33.980375 L -119.919155,34.07728 z" /><path fill-rule="evenodd" fill="#66cc99" stroke="#555555" stroke-width="0.4894973207999999" opacity="0.6" d="M -116.04662,32.623353 L -117.124862,32.534156 L -117.139464,32.627054 L -117.246069,32.669352 L -117.25167,32.874346 L -117.328359,33.121842 L -117.50565,33.334063 L -117.784888,33.541525 L -117.927091,33.605521 L -118.088896,33.729817 L -118.258687,33.703741 L -118.411211,33.741985 L -118.392107,33.840915 L -118.519514,34.027509 L -118.744952,34.032103 L -118.805114,34.001239 L -119.216441,34.146105 L -119.270144,34.252903 L -119.461036,34.374064 L -119.559459,34.413395 L -119.873971,34.408795 L -120.008077,34.460447 L -120.141165,34.473405 L -120.471376,34.447846 L -120.511421,34.522953 L -120.645739,34.581035 L -120.60197,34.692095 L -120.637415,34.755895 L -120.609898,34.842751 L -120.670835,34.904115 L -120.629931,35.061515 L -120.698906,35.171192 L -120.786076,35.177666 L -120.89679,35.247877 L -120.869209,35.403276 L -121.003359,35.46071 L -121.166712,35.635399 L -121.284973,35.674109 L -121.332449,35.783106 L -121.462264,35.885618 L -121.503112,36.000299 L -121.574602,36.025156 L -121.717176,36.195146 L -121.813734,36.234235 L -121.894714,36.317806 L -121.9416,36.485602 L -121.923866,36.634559 L -121.825052,36.657207 L -121.788278,36.803994 L -121.862266,36.931552 L -122.105976,36.955951 L -122.20618,37.013949 L -122.405073,37.195791 L -122.40085,37.359225 L -122.452087,37.48054 L -122.516689,37.52134 L -122.496784,37.686433 L -122.514483,37.780829 L -122.407452,37.811441 L -122.360219,37.592501 L -122.140142,37.507907 L -122.163049,37.667933 L -122.33079,37.78383 L -122.309986,37.892755 L -122.413725,37.937262 L -122.368891,38.007948 L -122.262861,38.0446 L -122.393588,38.143449 L -122.491283,38.108087 L -122.476473,37.832513 L -122.529185,37.819028 L -122.656519,37.904519 L -122.70264,37.89382 L -122.821383,37.996735 L -122.939711,38.031908 L -122.968569,38.242879 L -123.128825,38.450418 L -123.331899,38.565542 L -123.441774,38.699744 L -123.725367,38.917438 L -123.693969,39.057363 L -123.803848,39.278771 L -123.826306,39.36871 L -123.766475,39.552803 L -123.851714,39.832041 L -124.110549,40.103765 L -124.187874,40.130542 L -124.363414,40.260974 L -124.347853,40.314634 L -124.409591,40.438076 L -124.329404,40.61643 L -124.158322,40.876069 L -124.112165,41.028173 L -124.153622,41.05355 L -124.063076,41.439579 L -124.143479,41.709284 L -124.255994,41.783014 L -124.219592,41.846432 L -124.211605,41.99846 L -124.356229,42.114952 L -124.410982,42.250547 L -124.435105,42.440163 L -124.389977,42.574758 L -124.416774,42.661594 L -124.514669,42.736806 L -124.552441,42.840568 L -124.456918,43.000315 L -124.38246,43.270167 L -124.233534,43.55713 L -124.168392,43.808903 L -124.122406,44.104442 L -124.058281,44.658866 L -124.066746,44.831191 L -123.975425,45.145476 L -123.939005,45.661923 L -123.96763,45.907807 L -123.933366,46.071672 L -124.010344,46.223514 L -123.854801,46.157342 L -123.547659,46.259109 L -123.724273,46.301161 L -123.909306,46.245491 L -124.064624,46.326899 L -123.894254,46.537028 L -124.022413,46.708973 L -124.096515,46.746202 L -124.089286,46.867716 L -123.991612,46.980215 L -124.176745,47.092999 L -124.236349,47.287287 L -124.319379,47.355559 L -124.355955,47.545698 L -124.430546,47.746249 L -124.489737,47.816988 L -124.625512,47.887963 L -124.672427,47.964414 L -124.704153,48.184422 L -124.653243,48.390691 L -124.380874,48.284699 L -124.238582,48.262471 L -123.981032,48.164761 L -123.702743,48.166783 L -123.590839,48.134949 L -123.248615,48.115745 L -123.1644,48.165894 L -122.877641,48.047025 L -122.770559,48.053432 L -122.63636,47.866186 L -122.527593,47.905882 L -122.488491,47.743605 L -122.518277,47.65132 L -122.494882,47.510265 L -122.573739,47.318419 L -122.4442,47.266723 L -122.325734,47.391521 L -122.429841,47.658919 L -122.37314,47.729219 L -122.392044,47.807718 L -122.231761,48.029876 L -122.365078,48.125822 L -122.408718,48.326413 L -122.507437,48.364666 L -122.537355,48.466749 L -122.425271,48.599522 L -122.500308,48.656163 L -122.535803,48.776128 L -122.647443,48.773998 L -122.785659,48.885066 L -122.75802,49.002357 L -121.751252,48.997399 L -120.716604,49.000188 L -120.001199,48.999418 L -118.836613,49.0003078 L -118.1973751,49.0004068 L -117.032351,48.999188 L -116.049193,49.000912 L -115.207912,48.999228 L -113.692982,48.997632 L -113.009895,48.998619 L -111.500812,48.996963 L -110.171595,48.999262 L -108.994722,48.999237 L -108.236393,48.9995299 L -107.441017,48.999363 L -106.050543,48.999207 L -104.875527,48.998991 L -104.048736,48.999877 L -104.043933,47.971515 L -104.045333,47.343452 L -104.045045,46.509788 L -104.045443,45.94531 L -104.039693,45.000552 L -104.057698,44.997431 L -104.055488,43.853476 L -104.053127,43.000585 L -104.053026,41.885464 L -104.053249,41.001406 L -102.865784,41.001988 L -102.051614,41.002377 L -102.051744,40.003078 L -102.048449,39.303138 L -102.045388,38.813392 L -102.044644,38.045532 L -102.04224,36.993083 L -103.002199,37.000104 L -103.002434,36.500397 L -103.041924,36.500439 L -103.041554,35.6224876 L -103.042781,34.850243 L -103.04395,33.974629 L -103.064625,32.999899 L -103.064423,32.000518 L -103.722882,32.0002084 L -104.531756,32.000117 L -105.429281,32.000577 L -106.618486,32.000495 L -106.635926,31.866235 L -106.528242,31.783148 L -107.422495,31.783599 L -108.208394,31.783599 L -108.208573,31.333395 L -109.050044,31.332502 L -109.829689,31.334067 L -111.074825,31.332239 L -111.560194,31.488138 L -112.39942,31.751757 L -113.125961,31.97278 L -113.78168,32.179034 L -114.813613,32.494277 L -114.809393,32.617119 L -114.719633,32.718763 L -116.04662,32.623353 z" /><path fill-rule="evenodd" fill="#66cc99" stroke="#555555" stroke-width="0.4894973207999999" opacity="0.6" d="M -122.350741,47.953235 L -122.431035,47.914732 L -122.607342,48.030992 L -122.609568,48.15186 L -122.769939,48.227548 L -122.618466,48.294159 L -122.537936,48.016072 L -122.376259,48.034457 L -122.350741,47.953235 z" /><path fill-rule="evenodd" fill="#66cc99" stroke="#555555" stroke-width="0.4894973207999999" opacity="0.6" d="M -122.771206,48.562426 L -122.926901,48.460874 L -123.119451,48.492576 L -123.203026,48.596178 L -123.048652,48.621002 L -122.918252,48.713505 L -122.743049,48.661991 L -122.771206,48.562426 z" /></g></g></svg>