<svg xmlns="http://www.w3.org/2000/svg" xmlns:xlink="http://www.w3.org/1999/xlink" width="100.0" height="100.0" viewBox="-125.9516414 24.592628599999998 33.6821868 25.657216800000008" preserveAspectRatio="xMinYMin meet"><g transform="matrix(1,0,0,-1,0,74.84247400000001)"><g><path fill-rule="evenodd" fill="#66cc99" stroke="#555555" stroke-width="0.6736437359999999" opacity="0.6" d="M -118.369984,32.839273 L -118.496298,32.851572 L -118.605534,33.030999 L -118.369984,32.839273 z" /><path fill-rule="evenodd" fill="#66cc99" stroke="#555555" stroke-width="0.6736437359999999" opacity="0.6" d="M -118.48875,33.419826 L -118.603375,33.478098 L -118.368301,33.40711 L -118.310213,33.335795 L -118.465368,33.326056 L -118.48875,33.419826 z" /><path fill-rule="evenodd" fill="#66cc99" stroke="#555555" stroke-width="0.6736437359999999" opacity="0.6" d="M -120.247393,34.001911 L -120.073609,34.024477 L -119.973691,33.942481 L -120.121817,33.895712 L -120.247393,34.001911 z" /><path fill-rule="evenodd" fill="#66cc99" stroke="#555555" stroke-width="0.6736437359999999" opacity="0.6" d="M -119.919155,34.07728 L -119.755521,34.056716 L -119.721206,33.959583 L -119.873358,33.980375 L -119.919155,34.07728 z" /><path fill-rule="evenodd" fill="#66cc99" stroke="#555555" stroke-width="0.6736437359999999" opacity="0.6" d="M -116.04662,32.623353 L -117.124862,32.534156 L -117.139464,32.627054 L -117.246069,32.669352 L -117.25167,32.874346 L -117.328359,33.121842 L -117.50565,33.334063 L -117.784888,33.541525 L -117.927091,33.605521 L -118.088896,33.729817 L -118.258687,33.703741 L -118.411211,33.741985 L -118.392107,33.840915 L -118.519514,34.027509 L -118.744952,34.032103 L -118.805114,34.001239 L -119.216441,34.146105 L -119.270144,34.252903 L -119.461036,34.374064 L -119.559459,34.413395 L -119.873971,34.408795 L -120.008077,34.460447 L -120.141165,34.473405 L -120.471376,34.447846 L -120.511421,34.522953 L -120.645739,34.581035 L -120.60197,34.692095 L -120.637415,34.755895 L -120.609898,34.842751 L -120.670835,34.904115 L -120.629931,35.061515 L -120.698906,35.171192 L -120.786076,35.177666 L -120.89679,35.247877 L -120.869209,35.403276 L -121.003359,35.46071 L -121.166712,35.635399 L -121.284973,35.674109 L -121.332449,35.783106 L -121.462264,35.885618 L -121.503112,36.000299 L -121.574602,36.025156 L -121.717176,36.195146 L -121.813734,36.234235 L -121.894714,36.317806 L -121.9416,36.485602 L -121.923866,36.634559 L -121.825052,36.657207 L -121.788278,36.803994 L -121.862266,36.931552 L -122.105976,36.955951 L -122.20618,37.013949 L -122.405073,37.195791 L -122.40085,37.359225 L -122.452087,37.48054 L -122.516689,37.52134 L -122.496784,37.686433 L -122.514483,37.780829 L -122.407452,37.811441 L -122.360219,37.592501 L -122.140142,37.507907 L -122.163049,37.667933 L -122.33079,37.78383 L -122.309986,37.892755 L -122.413725,37.937262 L -122.368891,38.007948 L -122.262861,38.0446 L -122.393588,38.143449 L -122.491283,38.108087 L -122.476473,37.832513 L -122.529185,37.819028 L -122.656519,37.904519 L -122.70264,37.89382 L -122.821383,37.996735 L -122.939711,38.031908 L -122.968569,38.242879 L -123.128825,38.450418 L -123.331899,38.565542 L -123.441774,38.699744 L -123.725367,38.917438 L -123.693969,39.057363 L -123.803848,39.278771 L -123.826306,39.36871 L -123.766475,39.552803 L -123.851714,39.832041 L -124.110549,40.103765 L -124.187874,40.130542 L -124.363414,40.260974 L -124.347853,40.314634 L -124.409591,40.438076 L -124.329404,40.61643 L -124.158322,40.876069 L -124.112165,41.028173 L -124.153622,41.05355 L -124.063076,41.439579 L -124.143479,41.709284 L -124.255994,41.783014 L -124.219592,41.846432 L -124.211605,41.99846 L -124.356229,42.114952 L -124.410982,42.250547 L -124.435105,42.440163 L -124.389977,42.574758 L -124.416774,42.661594 L -124.514669,42.736806 L -124.552441,42.840568 L -124.456918,43.000315 L -124.38246,43.270167 L -124.233534,43.55713 L -124.168392,43.808903 L -124.122406,44.104442 L -124.058281,44.658866 L -124.066746,44.831191 L -123.975425,45.145476 L -123.939005,45.661923 L -123.96763,45.907807 L -123.933366,46.071672 L -124.010344,46.223514 L -123.854801,46.157342 L -123.547659,46.259109 L -123.724273,46.301161 L -123.909306,46.245491 L -124.064624,46.326899 L -123.894254,46.537028 L -124.022413,46.708973 L -124.096515,46.746202 L -124.089286,46.867716 L -123.991612,46.980215 L -124.176745,47.092999 L -124.236349,47.287287 L -124.319379,47.355559 L -124.355955,47.545698 L -124.430546,47.746249 L -124.489737,47.816988 L -124.625512,47.887963 L -124.672427,47.964414 L -124.704153,48.184422 L -124.653243,48.390691 L -124.380874,48.284699 L -124.238582,48.262471 L -123.981032,48.164761 L -123.702743,48.166783 L -123.590839,48.134949 L -123.248615,48.115745 L -123.1644,48.165894 L -122.877641,48.047025 L -122.770559,48.053432 L -122.63636,47.866186 L -122.527593,47.905882 L -122.488491,47.743605 L -122.518277,47.65132 L -122.494882,47.510265 L -122.573739,47.318419 L -122.4442,47.266723 L -122.325734,47.391521 L -122.429841,47.658919 L -122.37314,47.729219 L -122.392044,47.807718 L -122.231761,48.029876 L -122.365078,48.125822 L -122.408718,48.326413 L -122.507437,48.364666 L -122.537355,48.466749 L -122.425271,48.599522 L -122.500308,48.656163 L -122.535803,48.776128 L -122.647443,48.773998 L -122.785659,48.885066 L -122.75802,49.002357 L -121.751252,48.997399 L -120.716604,49.000188 L -120.001199,48.999418 L -118.836613,49.0003078 L -118.1973751,49.0004068 L -117.032351,48.999188 L -116.049193,49.000912 L -115.207912,48.999228 L -113.692982,48.997632 L -113.009895,48.998619 L -111.500812,48.996963 L -110.171595,48.999262 L -108.994722,48.999237 L -108.236393,48.9995299 L -107.441017,48.999363 L -106.050543,48.999207 L -104.875527,48.998991 L -104.048736,48.999877 L -104.043933,47.971515 L -104.045333,47.343452 L -104.045045,46.509788 L -104.045443,45.94531 L -104.039693,45.000552 L -104.057698,44.997431 L -104.055488,43.853476 L -104.053127,43.000585 L -104.053026,41.885464 L -104.053249,41.001406 L -102.865784,41.001988 L -102.051614,41.002377 L -102.051744,40.003078 L -102.048449,39.303138 L -102.045388,38.813392 L -102.044644,38.045532 L -102.04224,36.993083 L -103.002199,37.000104 L -103.002434,36.500397 L -102.250453,36.500369 L -101.085156,36.499244 L -100.000406,36.499702 L -100.000392,35.619115 L -100.000381,34.560509 L -99.887147,34.549047 L -99.696462,34.381036 L -99.58006,34.416653 L -99.397253,34.377871 L -99.394956,34.442099 L -99.261321,34.403499 L -99.213135,34.340369 L -99.189511,34.214312 L -98.909349,34.177499 L -98.76557,34.136376 L -98.577136,34.148962 L -98.486328,34.062598 L -98.364023,34.157109 L -98.16912,34.114171 L -98.082839,34.002412 L -97.94595,33.988396 L -97.967777,33.88243 L -97.834333,33.857671 L -97.671772,33.99137 L -97.462857,33.841772 L -97.372941,33.819454 L -97.210921,33.916064 L -97.166629,33.847311 L -97.172192,33.737545 L -96.922114,33.959579 L -96.866438,33.853149 L -96.690708,33.849959 L -96.673449,33.912278 L -96.422643,33.776041 L -96.342665,33.686975 L -96.277269,33.769735 L -96.169452,33.770131 L -96.14807,33.837799 L -95.941267,33.861619 L -95.828245,33.836054 L -95.563424,33.932193 L -95.533283,33.881162 L -95.294789,33.875388 L -95.230491,33.960764 L -95.131056,33.936925 L -94.830804,33.740068 L -94.775064,33.755038 L -94.652265,33.690979 L -94.485875,33.637867 L -94.392573,33.551142 L -94.226392,33.552912 L -94.183395,33.592212 L -94.04345,33.552253 L -94.042964,33.019219 L -94.04272,31.999265 L -93.909557,31.893144 L -93.822598,31.773559 L -93.818582,31.554826 L -93.725925,31.504092 L -93.620343,31.271025 L -93.600308,31.176158 L -93.516943,31.023662 L -93.567788,30.888302 L -93.554057,30.824941 L -93.621093,30.695159 L -93.727844,30.57407 L -93.697828,30.443838 L -93.758554,30.387077 L -93.714319,30.294282 L -93.697748,30.152944 L -93.720805,30.053043 L -93.786935,29.99058 L -93.85514,29.864099 L -93.922744,29.818808 L -93.837971,29.690619 L -94.001406,29.681486 L -94.133709,29.647289 L -94.594853,29.467903 L -94.546385,29.572048 L -94.740699,29.525858 L -94.696023,29.75755 L -94.816085,29.75671 L -94.872551,29.67125 L -95.005398,29.659366 L -94.981916,29.511141 L -94.909465,29.496838 L -94.893994,29.30817 L -94.803695,29.279237 L -95.026219,29.148064 L -95.353451,28.898145 L -95.812504,28.664942 L -96.220376,28.491966 L -96.390376,28.381815 L -96.442849,28.317666 L -96.63201,28.222821 L -96.886459,28.030734 L -96.919872,28.093547 L -96.734745,28.190771 L -96.599004,28.293287 L -96.440591,28.34298 L -96.45295,28.418679 L -96.620633,28.31913 L -96.684355,28.314464 L -96.710336,28.406827 L -96.794815,28.364587 L -96.800413,28.224128 L -96.934765,28.123873 L -97.037008,28.185528 L -97.214039,28.087494 L -97.04876,28.022092 L -97.187183,27.824126 L -97.250797,27.876035 L -97.454293,27.873824 L -97.368355,27.741683 L -97.253955,27.696696 L -97.321535,27.571199 L -97.404996,27.329977 L -97.514411,27.361529 L -97.609068,27.285193 L -97.54291,27.229213 L -97.422299,27.257712 L -97.467337,26.710126 L -97.406813,26.499492 L -97.279892,26.270923 L -97.310566,26.23057 L -97.290588,26.104776 L -97.152009,26.062108 L -97.146294,25.955606 L -97.276707,25.952147 L -97.367642,25.91568 L -97.372864,25.840117 L -97.521762,25.886458 L -97.649176,26.021499 L -97.88653,26.066339 L -98.039239,26.041275 L -98.248806,26.073101 L -98.465077,26.222335 L -98.585184,26.254429 L -98.669397,26.23632 L -98.824571,26.370715 L -99.110855,26.426278 L -99.091635,26.476977 L -99.166742,26.536079 L -99.208907,26.724761 L -99.268613,26.843213 L -99.446524,27.023008 L -99.426348,27.176262 L -99.504837,27.338289 L -99.480219,27.485796 L -99.511119,27.564494 L -99.603533,27.641992 L -99.704601,27.654954 L -99.813086,27.773952 L -99.877677,27.799427 L -99.893456,27.899208 L -99.991447,27.99456 L -100.083393,28.144035 L -100.208059,28.190383 L -100.294296,28.284381 L -100.336186,28.430181 L -100.500354,28.66196 L -100.507613,28.740599 L -100.602054,28.901944 L -100.651512,28.943432 L -100.674656,29.099777 L -100.775905,29.173344 L -100.797671,29.246943 L -101.010614,29.368669 L -101.060151,29.458661 L -101.261175,29.536777 L -101.252274,29.625634 L -101.367198,29.664041 L -101.475269,29.780663 L -101.714224,29.76766 L -101.974548,29.810276 L -102.115682,29.79239 L -102.181894,29.846034 L -102.341033,29.869305 L -102.386678,29.76688 L -102.490331,29.783948 L -102.677192,29.738261 L -102.693466,29.676507 L -102.808692,29.522319 L -102.843021,29.357988 L -102.953475,29.176308 L -103.100266,29.0577 L -103.115328,28.98527 L -103.28119,28.982138 L -103.427754,29.042334 L -103.558679,29.154962 L -103.724743,29.19147 L -103.838303,29.278304 L -104.038282,29.320156 L -104.18007,29.412764 L -104.264155,29.514001 L -104.338113,29.519967 L -104.507568,29.639624 L -104.565688,29.770462 L -104.679772,29.924659 L -104.706874,30.050685 L -104.687296,30.179464 L -104.761634,30.301148 L -104.859521,30.390413 L -104.899001,30.5704 L -104.9863,30.661059 L -105.195144,30.792138 L -105.39669,30.855427 L -105.399609,30.888941 L -105.55743,30.990229 L -105.60333,31.082625 L -105.773257,31.166897 L -105.953943,31.364749 L -106.080258,31.398702 L -106.205827,31.465976 L -106.381039,31.73211 L -106.528242,31.783148 L -107.422495,31.783599 L -108.208394,31.783599 L -108.208573,31.333395 L -109.050044,31.332502 L -109.829689,31.334067 L -111.074825,31.332239 L -111.560194,31.488138 L -112.39942,31.751757 L -113.125961,31.97278 L -113.78168,32.179034 L -114.813613,32.494277 L -114.809393,32.617119 L -114.719633,32.718763 L -116.04662,32.623353 z" /><path fill-rule="evenodd" fill="#66cc99" stroke="#555555" stroke-width="0.6736437359999999" opacity="0.6" d="M -122.431035,47.914732 L -122.607342,48.030992 L -122.609568,48.15186 L -122.769939,48.227548 L -122.618466,48.294159 L -122.537936,48.016072 L -122.376259,48.034457 L -122.350741,47.953235 L -122.431035,47.914732 z" /><path fill-rule="evenodd" fill="#66cc99" stroke="#555555" stroke-width="0.6736437359999999" opacity="0.6" d="M -122.926901,48.460874 L -123.119451,48.492576 L -123.203026,48.596178 L -123.048652,48.621002 L -122.918252,48.713505 L -122.743049,48.661991 L -122.771206,48.562426 L -122.926901,48.460874 z" /></g></g></svg>