<svg xmlns="http://www.w3.org/2000/svg" xmlns:xlink="http://www.w3.org/1999/xlink" width="100.0" height="100.0" viewBox="28.41517483262237 -12.647165814289291 12.828851841561068 12.624292383401512" preserveAspectRatio="xMinYMin meet"><g transform="matrix(1,0,0,-1,0,-12.67003924517707)"><path fill-rule="evenodd" fill="#66cc99" stroke="#555555" stroke-width="0.25657703683122135" opacity="0.6" d="M 30.26282844104446,-3.1831444905889392 L 30.20254890378251,-3.1196339818142205 L 30.17248632715356,-3.084517293617071 L 30.146160655725176,-3.046491453853081 L 30.12384793899257,-3.0059564198077875 L 30.105781968064168,-2.9633383905550787 L 30.092151858336035,-2.9190853270931814 L 30.083100102389835,-2.8736622509514116 L 30.025287079956783,-2.4799720690868434 L 30.025283444913548,-2.4799473198643005 L 30.020938611424786,-2.434764220325196 L 30.021122303281683,-2.3893707167814062 L 30.02583222051716,-2.3442246053900386 L 30.035020497261932,-2.2997811542946747 L 30.048594195724778,-2.2564885343817815 L 30.0664162478319,-2.2147833212285986 L 30.088306835179207,-2.175086112255225 L 30.114045193926973,-2.1377973020833827 L 30.143371827317917,-2.103293057732223 L 30.17599110464769,-2.071921533540466 L 30.211574221786663,-2.0439993635938456 L 30.249762494775343,-2.0198084669533705 L 30.29017095463178,-1.999593198127845 L 30.337256593056626,-1.978934679009596 L 30.352679126100988,-1.8223216385640566 L 30.052732904084927,-1.395766072546022 L 30.029149083620908,-1.358491738855352 L 30.0092962279285,-1.3190779943147615 L 29.99336372163447,-1.2779017675880913 L 29.98150347658179,-1.2353567522028186 L 29.973828503144286,-1.1918496525453106 L 29.970411850523988,-1.1477963095322952 L 29.97128592504307,-1.1036177421611317 L 29.976442192087507,-1.0597361417633449 L 29.985831264000836,-1.016570856119858 L 29.999363372875226,-0.9745344006438064 L 30.01690922385153,-0.9340285336022418 L 30.038301221228945,-0.895440431829577 L 30.063335056408647,-0.8591390025819506 L 30.091771643466966,-0.825471366087746 L 30.12333938498986,-0.7947595419629417 L 30.157736747723582,-0.7672973709748376 L 30.194635124633837,-0.7433477016537184 L 30.233681957149475,-0.7231398689708581 L 30.274504088733504,-0.7068674897279633 L 30.625147488481037,-0.5866706992867649 L 30.674109349387287,-0.572941456155213 L 30.72430042856164,-0.5648698092390988 L 30.775077834117766,-0.5625597795988081 L 31.860305145961913,-0.5749885597515287 L 33.88666934719202,-0.4980160916863382 L 33.932439889342774,-0.4986190192089833 L 33.97791142225333,-0.5039066531305141 L 34.022612081823624,-0.5138239282521583 L 34.06607804394508,-0.5282677316929025 L 34.107858337369024,-0.5470879831549441 L 34.147519520316465,-0.5700892029755376 L 34.304598690270936,-0.6722435405517597 L 37.91640443757128,-2.7029533704451043 L 37.952461542218245,-2.7254128092992222 L 37.98624638841988,-2.751195733732072 L 38.01745724837519,-2.7800711842682544 L 38.04581540588134,-2.8117806577282574 L 38.07106762063237,-2.8460404205520606 L 38.092988366200494,-2.882544042018674 L 38.11138182299732,-2.9209651248183777 L 38.126083609635394,-2.960960208939952 L 38.136962238312876,-3.002171823547762 L 38.14392028210872,-3.0442316604384496 L 38.188521242528694,-3.4229499154639154 L 39.45693743684009,-4.306943826545426 L 39.490629661615216,-4.332779154696643 L 39.52173843076651,-4.361692831147783 L 39.54998587369572,-4.393425827588649 L 39.57511965309089,-4.427694031517054 L 39.596915190219875,-4.46419078013152 L 39.61517764653878,-4.5025895891416985 L 39.629743645302334,-4.5425470526996055 L 39.64048271897427,-4.583705889423031 L 39.64729847040496,-4.625698108442694 L 39.6501294379608,-4.6681482685483475 L 39.64894965705185,-4.710676802833586 L 39.64376891280801,-4.752903380738305 L 39.63463268099947,-4.794450279061696 L 39.621621756686615,-4.8349457333666574 L 39.19840100188517,-5.967475899326185 L 39.22275746899227,-6.199151652674405 L 39.661975637187226,-6.449266215957578 L 39.697645049821894,-6.471818570877369 L 39.7310433839169,-6.4976140293273765 L 39.7618770781998,-6.526425089632183 L 39.789875066225626,-6.557997837960881 L 39.81479112774431,-6.592054177698367 L 39.836406026480496,-6.628294264819107 L 39.85452941696226,-6.66639912831857 L 39.86900150485953,-6.706033453424151 L 39.879694447187696,-6.746848504147111 L 39.88651348068496,-6.788485160744081 L 39.91670413179036,-7.048224515540583 L 39.919577115910755,-7.088703081159966 L 39.91878372953379,-7.1292754221968275 L 39.914329438919424,-7.169611090491764 L 39.9062494541289,-7.2093814605101665 L 39.89460848053629,-7.24826238480051 L 39.87950023405276,-7.285936817689379 L 39.66388918099957,-7.760327639622257 L 39.695018030213795,-7.924350526509454 L 39.70146451574547,-7.972184334961127 L 39.70273170733901,-8.020431006131751 L 39.69880321435509,-8.06853521251033 L 39.65396897975959,-8.398262949575491 L 39.93062917101121,-8.894087682774272 L 39.95304912767311,-8.940143109842815 L 40.309995513967706,-9.789677305589482 L 40.55001313935429,-9.93281575500245 L 40.55001690343132,-9.93281800152358 L 40.58688981910447,-9.957341936512409 L 40.621164261662024,-9.985324281442479 L 40.652511521188345,-10.016495914300029 L 40.68063079109766,-10.050557248121255 L 40.705252012722,-10.087181088099495 L 40.72613843662833,-10.12601574453691 L 40.743088877955586,-10.166688373052406 L 40.7559396454803,-10.208808511692043 L 40.76456612664216,-10.251971783051172 L 40.76888401338488,-10.295763728199567 L 40.768850156398464,-10.339763738099384 L 40.76446303819145,-10.383549047315705 L 40.755762858385026,-10.426698754144306 L 40.74283122771409,-10.468797830825084 L 40.72579047044721,-10.509441087284301 L 40.70480253830097,-10.54823705186965 L 40.6800675424163,-10.584811732827296 L 40.65182191357098,-10.618812224843719 L 40.62033620449803,-10.649910125858113 L 40.58591255192816,-10.677804730567727 L 39.790782653997084,-11.25855889860245 L 39.75450913626233,-11.282420605100937 L 39.71608125676761,-11.30274498435753 L 39.67585183291506,-11.319344116917023 L 38.58160204689309,-11.708959279884523 L 38.54120258328279,-11.72121092088694 L 38.49982141662438,-11.729724876771584 L 38.45781426301354,-11.734427146742862 L 38.415542449313854,-11.735276491165651 L 37.99074308098319,-11.724077906076685 L 37.76832631262137,-11.911558448944472 L 37.73387214906044,-11.937879322878654 L 37.697023122495544,-11.960849362857992 L 37.658113925377776,-11.9802588261282 L 37.617498363363275,-11.995930270679933 L 37.5755461220382,-12.007720214126328 L 37.5326393740931,-12.015520483131446 L 37.489169259230536,-12.019259239197268 L 36.88970489825904,-12.04188986216065 L 36.716210876449935,-12.125978209094328 L 36.67488973953764,-12.143561492295731 L 36.63200927922673,-12.157068502914468 L 36.58798412557886,-12.166367936626926 L 36.54324027302072,-12.171369165649182 L 36.498210903204814,-12.172023153490732 L 36.45333212774671,-12.168322961260236 L 36.409038695505146,-12.160303839229927 L 35.2831785632091,-11.896898448521506 L 34.609183721906604,-11.969423770319272 L 34.564088381406755,-11.972017305308226 L 34.51895175455952,-11.97022762171137 L 34.47421305135434,-11.964071867669261 L 34.43030760053039,-11.953609689701123 L 34.38766254525891,-11.938942651754454 L 34.34669262352122,-11.920213238773172 L 34.30779607766111,-11.897603455162146 L 34.27135073587983,-11.87133303285899 L 34.23771030617181,-11.841657267845672 L 34.207200920426885,-11.808864507784248 L 34.18011796321708,-11.773273316997843 L 34.15672321621788,-11.735229348197652 L 34.13724234536061,-11.69510195315329 L 34.12186275375352,-11.65328056689585 L 34.110731819216305,-11.610170902022594 L 33.85206818482202,-10.345255279177572 L 33.57091756375024,-9.958021925789188 L 33.476194777659025,-9.827679577073154 L 32.67299103402336,-9.674628803010885 L 32.629087460568165,-9.66393877695732 L 32.58647085068087,-9.648980452511841 L 32.54556182672665,-9.629901614975592 L 32.0241194474793,-9.353953213998356 L 31.438870340538962,-9.198802905345453 L 31.379540683210436,-9.178567645251222 L 30.98064701123697,-9.01084105240399 L 30.950025156193224,-8.996584846377296 L 30.920556787527687,-8.980103544392927 L 30.502678179499327,-8.725210447599325 L 30.465908137376676,-8.700197157996593 L 30.43178331384298,-8.671718265673906 L 30.4006318356345,-8.64004860860927 L 30.372752904879764,-8.605493642736993 L 30.348413943670266,-8.56838647121915 L 30.32784805656717,-8.529084612942079 L 30.32308467242736,-8.517283638670804 L 30.322677857004532,-8.517456284094886 L 29.819917704420146,-7.341305239674532 L 29.306063860611822,-6.8444640194605695 L 29.2769929463782,-6.813546644235439 L 29.250958214070767,-6.780038014787295 L 29.22818887434179,-6.744234597539668 L 29.208885132421766,-6.706452994450574 L 29.193216457994613,-6.6670271367094545 L 28.99378714104359,-6.08709364724645 L 28.98079671115247,-6.041735762192906 L 28.972608327402146,-5.995268723567685 L 28.969310032736296,-5.948200107681136 L 28.970936519250706,-5.90104389506036 L 28.977468810222526,-5.854314887462329 L 29.061188524463773,-5.420601272826444 L 28.898703846320068,-4.586882793073623 L 28.89240274811484,-4.543540474683739 L 28.890317493420927,-4.499789555113576 L 28.89246690562192,-4.456041728545087 L 28.89883004585192,-4.41270858732597 L 28.909346435197268,-4.370197773565518 L 28.92391664171404,-4.3289091692381945 L 28.94240322626226,-4.289231159230681 L 28.964632038183286,-4.251537001134965 L 28.990393848935927,-4.216181334710191 L 29.019446308967776,-4.183496862807177 L 29.051516210340274,-4.153791234169062 L 29.086302034963673,-4.127344156885111 L 29.123476765750237,-4.104404769383669 L 29.16269093558318,-4.085189293701904 L 29.203575886752237,-4.0698789933716455 L 29.245747211454002,-4.058618455620511 L 29.28880834212715,-4.051514214719414 L 29.547086752438062,-4.021690472628239 L 29.776059237120982,-3.7929452415696923 L 30.145662128831642,-3.297681499473965 L 30.17851367312432,-3.2584587137719483 L 30.21557255564264,-3.2232258062101886 L 30.26282844104446,-3.1831444905889392 z" /></g></svg>