<svg xmlns="http://www.w3.org/2000/svg" xmlns:xlink="http://www.w3.org/1999/xlink" width="100.0" height="100.0" viewBox="27.820976891537384 -13.239321992079049 14.013568616675855 13.807623071169598" preserveAspectRatio="xMinYMin meet"><g transform="matrix(1,0,0,-1,0,-12.6710209129885)"><path fill-rule="evenodd" fill="#66cc99" stroke="#555555" stroke-width="0.28027137233351707" opacity="0.6" d="M 29.5828902659312,-3.1329212495815395 L 29.558369441507086,-3.0535383059807475 L 29.53832970883274,-2.9533099961522717 L 29.48033970883272,-2.5595199961522486 L 29.470724318872776,-2.4597378006144552 L 29.471147276393772,-2.359494280238524 L 29.481604331119993,-2.259796776373698 L 29.50199040071218,-2.16164714348082 L 29.532100626733875,-2.066031681554693 L 29.57163243326204,-1.973911224852373 L 29.620188567455024,-1.886211486525187 L 29.67228024471931,-1.8110311359197488 L 29.60127232165188,-1.710115411336477 L 29.549098319906243,-1.627699307348247 L 29.505202030680298,-1.5405921523783803 L 29.470001107002474,-1.4496227309941572 L 29.443830469492188,-1.3556565754536773 L 29.426939119744,-1.2595877305640013 L 29.41948777119179,-1.1623302472554873 L 29.4215473199943,-1.064809485807053 L 29.433098170490716,-0.9679533114681818 L 29.454030421644394,-0.8726832662472848 L 29.484144912700735,-0.7799058008627962 L 29.523155118110285,-0.6905036502809621 L 29.570689873687726,-0.6053274348981149 L 29.626296908068603,-0.5251875672783329 L 29.689447145863614,-0.45084654145015113 L 29.75953974156789,-0.3830116781261278 L 29.835907796330016,-0.32232839487116904 L 29.917824703188227,-0.2693740652508676 L 30.00451106040191,-0.22465252538724123 L 30.095142087101145,-0.18858928018946486 L 30.44589723508201,-0.06848016803903412 L 30.55548810139515,-0.03779788759453728 L 30.667855418282382,-0.01976607104425898 L 30.78154385366189,-0.014618258547795193 L 31.85303384103529,-0.027138245356448515 L 33.865771202371576,0.04928001921366576 L 33.968125161609045,0.04792326417255677 L 34.06980418013413,0.03611009577446622 L 34.1697428475234,0.013964294450476311 L 34.26689398905504,-0.018282092245178183 L 34.3602396381875,-0.06029118106970277 L 34.44880170298981,-0.11162279349107063 L 34.59060877897868,-0.20382197327406815 L 38.18849558885456,-2.225158316057008 L 38.26832010074777,-2.2750888208293496 L 38.3430948372375,-2.3323054861350236 L 38.41215691968614,-2.3963010857780294 L 38.474894112179875,-2.4665082982551954 L 38.530750249004996,-2.5423047360658453 L 38.579230165061375,-2.6230184631819764 L 38.61990408550504,-2.7079339517665244 L 38.65241143570564,-2.796298425333371 L 38.67646403774339,-2.8873285321169164 L 38.69184866510868,-2.980217289491755 L 38.70753205823211,-3.113605456222293 L 39.773733828027375,-3.856177565003496 L 39.85402372280093,-3.9183822977375984 L 39.927589678172474,-3.9884104791186807 L 39.99367279539892,-4.065539705712138 L 40.05159136791712,-4.148974320439624 L 40.10074791375781,-4.237853620494708 L 40.140635339107504,-4.331260736263489 L 40.17084216943549,-4.4282320896561576 L 40.1910567942223,-4.527767334278342 L 40.20107068150142,-4.628839674900446 L 40.20078052905334,-4.7304064597704345 L 40.19018933006054,-4.831419936500842 L 40.16940634223011,-4.930838060573415 L 40.13864596070259,-5.0276352449619655 L 39.811478618458935,-5.900813757710475 L 39.93459727228212,-5.970877719620927 L 40.013872106124545,-6.021055065457762 L 40.08809556543143,-6.078440981887608 L 40.15661431562128,-6.1425303428486515 L 40.21882523647581,-6.212759016781781 L 40.2741807309641,-6.288508832266249 L 40.32219354533697,-6.369113019328524 L 40.362441058063744,-6.453862078528506 L 40.394568999859096,-6.542010026161838 L 40.41829457205528,-6.632780960606393 L 40.433408935871064,-6.72537589201421 L 40.463408935871215,-6.985375892014313 L 40.4697013397958,-7.075561685598889 L 40.46782311298002,-7.1659472152795765 L 40.45778960630634,-7.255793753640601 L 40.43968282434432,-7.344366978480897 L 40.413650755121395,-7.430942974482114 L 40.379906160606126,-7.514814149820427 L 40.2358217608429,-7.830867213701004 L 40.24891958632219,-7.928999133474595 L 40.25161827663728,-8.036502807624995 L 40.24275740536903,-8.143674668883532 L 40.22261553619518,-8.290549510958828 L 40.40932608953285,-8.625700354167247 L 40.457813091448585,-8.72535421992547 L 40.74428236298452,-9.407873177574567 L 40.82850828857445,-9.458065852924038 L 40.82851205946361,-9.458068100106416 L 40.910686142619035,-9.51270595891975 L 40.987074991468056,-9.575176906804826 L 41.05693474090657,-9.644872609445146 L 41.11958510538801,-9.721114378761463 L 41.174416003459385,-9.803159781891837 L 41.22089349865854,-9.890209870910473 L 41.25856499892097,-9.981416962883179 L 41.28706366386502,-10.075892894498304 L 41.30611197703791,-10.172717670890544 L 41.315524448336355,-10.270948424436444 L 41.31520942028616,-10.369628596281993 L 41.30516996059128,-10.467797251193703 L 41.28550383226089,-10.564498435026334 L 41.25640254160539,-10.658790483685399 L 41.21814947337175,-10.749755192934932 L 41.171117131178164,-10.836506759756082 L 41.115763510120104,-10.91820040818667 L 41.05262763687114,-10.994040615644387 L 40.98232432070821,-11.06328885962671 L 40.90553816657545,-11.125270809351115 L 40.109948166575386,-11.705050809351254 L 40.02962393844224,-11.757868785782644 L 39.94459915015274,-11.802729744709275 L 39.855659577015366,-11.839219093698167 L 38.76221617060316,-12.227541418779813 L 38.67408382946155,-12.254338188607727 L 38.583859611923714,-12.272911475823445 L 38.49230910443842,-12.283103679093431 L 38.40020914752388,-12.284828313736304 L 38.18058643451367,-12.278819946240246 L 38.11528227439494,-12.333791993134644 L 38.04008076586977,-12.391242257961368 L 37.95978528110991,-12.441326536335943 L 37.87511493040278,-12.483596283487463 L 37.78682800445941,-12.51767294002229 L 37.69571518331467,-12.543251322226196 L 37.60259245515514,-12.560102355228617 L 37.50829380849227,-12.568075124551342 L 37.02196019238445,-12.586083654144957 L 36.949856784988455,-12.620993577836684 L 36.86034025169495,-12.65907711059696 L 36.76754687763029,-12.688282502737572 L 36.6723548189401,-12.70833336712579 L 36.575664931878364,-12.719039951099157 L 36.4783922474955,-12.720300932202164 L 36.381457312182384,-12.712104377057928 L 36.28577747601955,-12.694527854300473 L 35.24991973660455,-12.451622020765164 L 34.666859730267845,-12.514292962380338 L 34.56874164477864,-12.519981728707112 L 34.47053901339912,-12.51601134427663 L 34.37320042648602,-12.50242016109973 L 34.2776661281406,-12.479339463492497 L 34.18485893390126,-12.446992199932676 L 34.09567531678765,-12.405690829484232 L 34.01097674780093,-12.355834303592527 L 33.93158137452679,-12.297904212404552 L 33.8582561182218,-12.232460132838902 L 33.79170926572165,-12.160134223340918 L 33.73258362772973,-12.081625117535056 L 33.68145032957382,-11.997691175758883 L 33.6388032944091,-11.909143159665653 L 33.6050544721572,-11.81683640065529 L 33.58052986026737,-11.721662537782963 L 33.344129420901,-10.57337000368607 L 33.16386173063365,-10.325513607530167 L 32.572438699470524,-10.212971006865208 L 32.47575557218273,-10.189535844981762 L 32.38187938363371,-10.156610244939255 L 32.29173921087006,-10.114520065932847 L 31.82530845565715,-9.867756025886676 L 31.300334551117082,-9.728722036043864 L 31.16899871988878,-9.68398184373475 L 30.770401959372336,-9.516511749053475 L 30.70261115600701,-9.484998544767496 L 30.63736398322213,-9.448509073561869 L 30.219622377694176,-9.193936256598226 L 30.138428588954273,-9.13881762845729 L 30.063028324097054,-9.076006048652763 L 29.994147724958385,-9.006106423758373 L 29.932450145769288,-8.929791921727082 L 29.87852976472669,-8.847797488950825 L 29.832905861763557,-8.760912772363328 L 29.821799890000197,-8.733533773425075 L 29.820872416341302,-8.73393126756999 L 29.360304902158195,-7.659288425624872 L 28.925437665790444,-7.239416611200831 L 28.860872054744625,-7.170919064380667 L 28.803033082231284,-7.096654097480373 L 28.752433238104018,-7.017279745045869 L 28.70952086896343,-6.933499314008291 L 28.67467620552287,-6.846055151940061 L 28.474636736121024,-6.2660388758960694 L 28.445803489950965,-6.165731821555311 L 28.427581951772712,-6.062965889546491 L 28.420170606273132,-5.9588604949066895 L 28.423650184210317,-5.854549643253556 L 28.43798278302464,-5.751169578219476 L 28.501350526328665,-5.421624564850762 L 28.35860290571268,-4.691984630935581 L 28.344619042510104,-4.596012269535094 L 28.33999795141427,-4.499136637408444 L 28.344783099529018,-4.402268970251782 L 28.358929476590387,-4.306320428840818 L 28.382304018344072,-4.212193528431536 L 28.414686858180076,-4.120773649482755 L 28.455773395251377,-4.032920709552765 L 28.505177159623397,-3.9494610747061625 L 28.56243344750394,-3.8711797865141917 L 28.62700369235981,-3.7988131777632854 L 28.69828053080426,-3.7330419463302524 L 28.775593515604342,-3.6744847523729245 L 28.858215422070224,-3.6236923990626364 L 28.94536908850703,-3.581142651595978 L 29.036234726386265,-3.54723574321946 L 29.129957631475595,-3.522290610538507 L 29.22565622339418,-3.5065418935223764 L 29.293297459979012,-3.498756642473313 L 29.35833848549973,-3.43381209683054 L 29.5828902659312,-3.1329212495815395 z" /></g></svg>